<svg width="14" height="14" viewBox="0 0 14 14" fill="none" xmlns="http://www.w3.org/2000/svg">
<g clip-path="url(#clip0_2_985)">
<path d="M13.8332 7.13102C13.8332 6.55744 13.7867 6.13889 13.6859 5.70483H7.13629V8.29366H10.9808C10.9033 8.93702 10.4847 9.9059 9.5546 10.557L9.54157 10.6436L11.6124 12.2479L11.7559 12.2622C13.0736 11.0453 13.8332 9.2548 13.8332 7.13102Z" fill="#4285F4"/>
<path d="M7.13624 13.952C9.01972 13.952 10.6009 13.3319 11.7559 12.2622L9.55456 10.557C8.96549 10.9678 8.17486 11.2546 7.13624 11.2546C5.2915 11.2546 3.7258 10.0377 3.16767 8.35571L3.08586 8.36266L0.932533 10.0291L0.904373 10.1074C2.05152 12.3862 4.40785 13.952 7.13624 13.952Z" fill="#34A853"/>
<path d="M3.16771 8.35563C3.02044 7.92158 2.93521 7.45648 2.93521 6.97594C2.93521 6.49534 3.02044 6.0303 3.15996 5.59624L3.15606 5.5038L0.975744 3.81055L0.904408 3.84448C0.431614 4.79012 0.160324 5.85204 0.160324 6.97594C0.160324 8.09984 0.431614 9.1617 0.904408 10.1073L3.16771 8.35563Z" fill="#FBBC05"/>
<path d="M7.13624 2.69735C8.44615 2.69735 9.32975 3.26318 9.83359 3.73602L11.8024 1.81375C10.5932 0.689847 9.01972 0 7.13624 0C4.40785 0 2.05152 1.5657 0.904373 3.8445L3.15992 5.59626C3.7258 3.91428 5.2915 2.69735 7.13624 2.69735Z" fill="#EB4335"/>
</g>
<defs>
<clipPath id="clip0_2_985">
<rect width="14" height="14" fill="white"/>
</clipPath>
</defs>
</svg>
