<svg width="18" height="18" viewBox="0 0 18 18" fill="none" xmlns="http://www.w3.org/2000/svg">
<path d="M6.02295 8.27291C5.97071 8.32521 5.90867 8.3667 5.84039 8.39501C5.7721 8.42332 5.69891 8.43789 5.62498 8.43789C5.55106 8.43789 5.47787 8.42332 5.40958 8.39501C5.34129 8.3667 5.27926 8.32521 5.22702 8.27291L2.97702 6.02292C2.92472 5.97067 2.88323 5.90864 2.85492 5.84035C2.82661 5.77206 2.81204 5.69887 2.81204 5.62495C2.81204 5.55102 2.82661 5.47783 2.85492 5.40954C2.88323 5.34126 2.92472 5.27922 2.97702 5.22698L5.22702 2.97698C5.27928 2.92472 5.34132 2.88326 5.40961 2.85497C5.47789 2.82669 5.55108 2.81213 5.62498 2.81213C5.69889 2.81213 5.77208 2.82669 5.84036 2.85497C5.90865 2.88326 5.97069 2.92472 6.02295 2.97698C6.1285 3.08253 6.1878 3.22568 6.1878 3.37495C6.1878 3.44886 6.17324 3.52204 6.14496 3.59033C6.11667 3.65861 6.07522 3.72065 6.02295 3.77291L4.73272 5.06245L14.625 5.06245C14.7742 5.06245 14.9172 5.12171 15.0227 5.2272C15.1282 5.33269 15.1875 5.47576 15.1875 5.62495C15.1875 5.77413 15.1282 5.9172 15.0227 6.02269C14.9172 6.12818 14.7742 6.18745 14.625 6.18745L4.73272 6.18745L6.02295 7.47698C6.07525 7.52922 6.11674 7.59126 6.14505 7.65954C6.17336 7.72783 6.18793 7.80102 6.18793 7.87495C6.18793 7.94887 6.17336 8.02206 6.14505 8.09035C6.11674 8.15864 6.07525 8.22067 6.02295 8.27291ZM12.773 15.0229L15.023 12.7729C15.0753 12.7207 15.1167 12.6586 15.145 12.5904C15.1734 12.5221 15.1879 12.4489 15.1879 12.3749C15.1879 12.301 15.1734 12.2278 15.145 12.1595C15.1167 12.0913 15.0753 12.0292 15.023 11.977L12.773 9.72698C12.6674 9.62143 12.5243 9.56213 12.375 9.56213C12.2257 9.56213 12.0826 9.62143 11.977 9.72698C11.8715 9.83253 11.8122 9.97568 11.8122 10.1249C11.8122 10.2742 11.8715 10.4174 11.977 10.5229L13.2673 11.8124L3.37498 11.8124C3.2258 11.8124 3.08273 11.8717 2.97724 11.9772C2.87175 12.0827 2.81248 12.2258 2.81248 12.3749C2.81248 12.5241 2.87175 12.6672 2.97724 12.7727C3.08273 12.8782 3.2258 12.9374 3.37498 12.9374L13.2673 12.9374L11.977 14.227C11.8715 14.3325 11.8122 14.4757 11.8122 14.6249C11.8122 14.7742 11.8715 14.9174 11.977 15.0229C12.0826 15.1285 12.2257 15.1878 12.375 15.1878C12.5243 15.1878 12.6674 15.1285 12.773 15.0229Z" fill="black"/>
</svg>
