<svg width="18" height="18" viewBox="0 0 18 18" fill="none" xmlns="http://www.w3.org/2000/svg">
<path d="M14.4605 8.27292C14.4082 8.32522 14.3462 8.36671 14.2779 8.39502C14.2096 8.42333 14.1364 8.4379 14.0625 8.4379C13.9886 8.4379 13.9154 8.42333 13.8471 8.39502C13.7788 8.36671 13.7168 8.32522 13.6645 8.27292L9.56251 4.17019V15.1875C9.56251 15.3366 9.50324 15.4797 9.39776 15.5852C9.29227 15.6907 9.14919 15.75 9.00001 15.75C8.85082 15.75 8.70775 15.6907 8.60226 15.5852C8.49677 15.4797 8.43751 15.3366 8.43751 15.1875V4.17019L4.33548 8.27292C4.22993 8.37847 4.08677 8.43777 3.93751 8.43777C3.78824 8.43777 3.64509 8.37847 3.53954 8.27292C3.43399 8.16737 3.37469 8.02422 3.37469 7.87495C3.37469 7.72569 3.43399 7.58253 3.53954 7.47698L8.60204 2.41449C8.65428 2.36219 8.71632 2.3207 8.7846 2.29239C8.85289 2.26408 8.92609 2.24951 9.00001 2.24951C9.07393 2.24951 9.14713 2.26408 9.21541 2.29239C9.2837 2.3207 9.34574 2.36219 9.39798 2.41449L14.4605 7.47698C14.5128 7.52923 14.5543 7.59126 14.5826 7.65955C14.6109 7.72784 14.6255 7.80103 14.6255 7.87495C14.6255 7.94887 14.6109 8.02207 14.5826 8.09036C14.5543 8.15864 14.5128 8.22068 14.4605 8.27292Z" fill="black"/>
</svg>
