<svg width="18" height="18" viewBox="0 0 18 18" fill="none" xmlns="http://www.w3.org/2000/svg">
<path d="M14.4605 10.523L9.39798 15.5855C9.34574 15.6378 9.2837 15.6793 9.21541 15.7076C9.14713 15.7359 9.07393 15.7504 9.00001 15.7504C8.92609 15.7504 8.85289 15.7359 8.7846 15.7076C8.71632 15.6793 8.65428 15.6378 8.60204 15.5855L3.53954 10.523C3.43399 10.4174 3.37469 10.2743 3.37469 10.125C3.37469 9.97573 3.43399 9.83258 3.53954 9.72703C3.64509 9.62148 3.78824 9.56219 3.93751 9.56219C4.08677 9.56219 4.22993 9.62148 4.33548 9.72703L8.43751 13.8298V2.8125C8.43751 2.66332 8.49677 2.52024 8.60226 2.41475C8.70775 2.30926 8.85082 2.25 9.00001 2.25C9.14919 2.25 9.29227 2.30926 9.39776 2.41475C9.50324 2.52024 9.56251 2.66332 9.56251 2.8125V13.8298L13.6645 9.72703C13.7701 9.62148 13.9132 9.56219 14.0625 9.56219C14.2118 9.56219 14.3549 9.62148 14.4605 9.72703C14.566 9.83258 14.6253 9.97573 14.6253 10.125C14.6253 10.2743 14.566 10.4174 14.4605 10.523Z" fill="black"/>
</svg>
