<svg width="18" height="18" viewBox="0 0 18 18" fill="none" xmlns="http://www.w3.org/2000/svg">
<path d="M15.75 8.99995C15.75 9.14913 15.6908 9.29221 15.5853 9.39769C15.4798 9.50318 15.3367 9.56245 15.1875 9.56245H4.17025L8.27298 13.6645C8.32525 13.7167 8.3667 13.7788 8.39499 13.8471C8.42327 13.9154 8.43783 13.9885 8.43783 14.0624C8.43783 14.1364 8.42327 14.2095 8.39499 14.2778C8.3667 14.3461 8.32525 14.4082 8.27298 14.4604C8.22072 14.5127 8.15868 14.5541 8.09039 14.5824C8.02211 14.6107 7.94892 14.6253 7.87501 14.6253C7.80111 14.6253 7.72792 14.6107 7.65964 14.5824C7.59135 14.5541 7.52931 14.5127 7.47705 14.4604L2.41455 9.39792C2.36225 9.34567 2.32076 9.28364 2.29245 9.21535C2.26414 9.14706 2.24957 9.07387 2.24957 8.99995C2.24957 8.92603 2.26414 8.85283 2.29245 8.78454C2.32076 8.71626 2.36225 8.65422 2.41455 8.60198L7.47705 3.53948C7.58259 3.43393 7.72575 3.37463 7.87501 3.37463C8.02428 3.37463 8.16744 3.43393 8.27298 3.53948C8.37853 3.64503 8.43783 3.78818 8.43783 3.93745C8.43783 4.08671 8.37853 4.22987 8.27298 4.33542L4.17025 8.43745H15.1875C15.3367 8.43745 15.4798 8.49671 15.5853 8.6022C15.6908 8.70769 15.75 8.85076 15.75 8.99995Z" fill="black"/>
</svg>
