<svg width="18" height="18" viewBox="0 0 18 18" fill="none" xmlns="http://www.w3.org/2000/svg">
<path d="M15.5953 12.3708C15.2051 11.6986 14.625 9.79664 14.625 7.3125C14.625 5.82066 14.0324 4.38992 12.9775 3.33502C11.9226 2.28013 10.4919 1.6875 9.00001 1.6875C7.50817 1.6875 6.07743 2.28013 5.02253 3.33502C3.96764 4.38992 3.37501 5.82066 3.37501 7.3125C3.37501 9.79734 2.79423 11.6986 2.40399 12.3708C2.30434 12.5417 2.25151 12.7358 2.25083 12.9336C2.25015 13.1315 2.30165 13.326 2.40013 13.4975C2.4986 13.6691 2.64058 13.8117 2.81174 13.9109C2.9829 14.01 3.17719 14.0624 3.37501 14.0625H6.24446C6.37424 14.6975 6.71937 15.2682 7.22148 15.6781C7.72359 16.088 8.35185 16.3119 9.00001 16.3119C9.64817 16.3119 10.2764 16.088 10.7785 15.6781C11.2806 15.2682 11.6258 14.6975 11.7556 14.0625H14.625C14.8228 14.0622 15.017 14.0098 15.188 13.9106C15.3591 13.8114 15.501 13.6688 15.5994 13.4972C15.6978 13.3257 15.7492 13.1312 15.7485 12.9335C15.7478 12.7357 15.6949 12.5416 15.5953 12.3708ZM9.00001 15.1875C8.65113 15.1874 8.31086 15.0792 8.02604 14.8777C7.74121 14.6762 7.52583 14.3914 7.40954 14.0625H10.5905C10.4742 14.3914 10.2588 14.6762 9.97398 14.8777C9.68915 15.0792 9.34889 15.1874 9.00001 15.1875ZM3.37501 12.9375C3.91642 12.0066 4.50001 9.84937 4.50001 7.3125C4.50001 6.11902 4.97411 4.97443 5.81803 4.13052C6.66194 3.28661 7.80654 2.8125 9.00001 2.8125C10.1935 2.8125 11.3381 3.28661 12.182 4.13052C13.0259 4.97443 13.5 6.11902 13.5 7.3125C13.5 9.84726 14.0822 12.0045 14.625 12.9375H3.37501Z" fill="black"/>
</svg>
