<svg width="18" height="18" viewBox="0 0 18 18" fill="none" xmlns="http://www.w3.org/2000/svg">
<path d="M16.3125 3.375H11.25C10.8134 3.375 10.3827 3.47666 9.99221 3.67192C9.60168 3.86719 9.26198 4.1507 9 4.5C8.73802 4.1507 8.39832 3.86719 8.00779 3.67192C7.61726 3.47666 7.18663 3.375 6.75 3.375H1.6875C1.53832 3.375 1.39524 3.43426 1.28975 3.53975C1.18426 3.64524 1.125 3.78832 1.125 3.9375V14.0625C1.125 14.2117 1.18426 14.3548 1.28975 14.4602C1.39524 14.5657 1.53832 14.625 1.6875 14.625H6.75C7.19755 14.625 7.62678 14.8028 7.94324 15.1193C8.25971 15.4357 8.4375 15.8649 8.4375 16.3125C8.4375 16.4617 8.49676 16.6048 8.60225 16.7102C8.70774 16.8157 8.85082 16.875 9 16.875C9.14918 16.875 9.29226 16.8157 9.39775 16.7102C9.50324 16.6048 9.5625 16.4617 9.5625 16.3125C9.5625 15.8649 9.74029 15.4357 10.0568 15.1193C10.3732 14.8028 10.8024 14.625 11.25 14.625H16.3125C16.4617 14.625 16.6048 14.5657 16.7102 14.4602C16.8157 14.3548 16.875 14.2117 16.875 14.0625V3.9375C16.875 3.78832 16.8157 3.64524 16.7102 3.53975C16.6048 3.43426 16.4617 3.375 16.3125 3.375ZM6.75 13.5H2.25V4.5H6.75C7.19755 4.5 7.62678 4.67779 7.94324 4.99426C8.25971 5.31072 8.4375 5.73995 8.4375 6.1875V14.0625C7.95112 13.6965 7.3587 13.499 6.75 13.5ZM15.75 13.5H11.25C10.6413 13.499 10.0489 13.6965 9.5625 14.0625V6.1875C9.5625 5.73995 9.74029 5.31072 10.0568 4.99426C10.3732 4.67779 10.8024 4.5 11.25 4.5H15.75V13.5Z" fill="black"/>
</svg>
