<svg width="18" height="18" viewBox="0 0 18 18" fill="none" xmlns="http://www.w3.org/2000/svg">
<path d="M12.773 11.977C12.8253 12.0292 12.8668 12.0913 12.8951 12.1595C12.9234 12.2278 12.9379 12.301 12.9379 12.375C12.9379 12.4489 12.9234 12.5221 12.8951 12.5904C12.8668 12.6586 12.8253 12.7207 12.773 12.7729L9.39798 16.1479C9.34574 16.2002 9.2837 16.2417 9.21541 16.27C9.14713 16.2983 9.07393 16.3129 9.00001 16.3129C8.92609 16.3129 8.85289 16.2983 8.7846 16.27C8.71632 16.2417 8.65428 16.2002 8.60204 16.1479L5.22704 12.7729C5.12149 12.6674 5.06219 12.5242 5.06219 12.375C5.06219 12.2257 5.12149 12.0825 5.22704 11.977C5.33259 11.8714 5.47574 11.8121 5.62501 11.8121C5.77427 11.8121 5.91743 11.8714 6.02298 11.977L9.00001 14.9547L11.977 11.977C12.0293 11.9247 12.0913 11.8832 12.1596 11.8549C12.2279 11.8266 12.3011 11.812 12.375 11.812C12.4489 11.812 12.5221 11.8266 12.5904 11.8549C12.6587 11.8832 12.7207 11.9247 12.773 11.977ZM6.02298 6.02292L9.00001 3.04519L11.977 6.02292C12.0826 6.12847 12.2257 6.18777 12.375 6.18777C12.5243 6.18777 12.6674 6.12847 12.773 6.02292C12.8785 5.91737 12.9378 5.77422 12.9378 5.62495C12.9378 5.47569 12.8785 5.33253 12.773 5.22698L9.39798 1.85199C9.34574 1.79969 9.2837 1.7582 9.21541 1.72989C9.14713 1.70158 9.07393 1.68701 9.00001 1.68701C8.92609 1.68701 8.85289 1.70158 8.7846 1.72989C8.71632 1.7582 8.65428 1.79969 8.60204 1.85199L5.22704 5.22698C5.12149 5.33253 5.06219 5.47569 5.06219 5.62495C5.06219 5.77422 5.12149 5.91737 5.22704 6.02292C5.33259 6.12847 5.47574 6.18777 5.62501 6.18777C5.77427 6.18777 5.91743 6.12847 6.02298 6.02292Z" fill="black"/>
</svg>
