<svg width="18" height="18" viewBox="0 0 18 18" fill="none" xmlns="http://www.w3.org/2000/svg">
<path d="M12.773 9.39792L7.14798 15.0229C7.09571 15.0752 7.03367 15.1166 6.96539 15.1449C6.8971 15.1732 6.82392 15.1878 6.75001 15.1878C6.6761 15.1878 6.60291 15.1732 6.53463 15.1449C6.46634 15.1166 6.4043 15.0752 6.35204 15.0229C6.29978 14.9707 6.25832 14.9086 6.23004 14.8403C6.20175 14.772 6.18719 14.6989 6.18719 14.6249C6.18719 14.551 6.20175 14.4779 6.23004 14.4096C6.25832 14.3413 6.29978 14.2792 6.35204 14.227L11.5798 8.99995L6.35204 3.77292C6.24649 3.66737 6.18719 3.52421 6.18719 3.37495C6.18719 3.22568 6.24649 3.08253 6.35204 2.97698C6.45759 2.87143 6.60074 2.81213 6.75001 2.81213C6.89927 2.81213 7.04243 2.87143 7.14798 2.97698L12.773 8.60198C12.8253 8.65422 12.8668 8.71626 12.8951 8.78454C12.9234 8.85283 12.9379 8.92603 12.9379 8.99995C12.9379 9.07387 12.9234 9.14706 12.8951 9.21535C12.8668 9.28364 12.8253 9.34567 12.773 9.39792Z" fill="black"/>
</svg>
