<svg width="18" height="18" viewBox="0 0 18 18" fill="none" xmlns="http://www.w3.org/2000/svg">
<path d="M15.023 7.14792L9.39798 12.7729C9.34574 12.8252 9.2837 12.8667 9.21541 12.895C9.14713 12.9233 9.07393 12.9379 9.00001 12.9379C8.92609 12.9379 8.85289 12.9233 8.7846 12.895C8.71632 12.8667 8.65428 12.8252 8.60204 12.7729L2.97704 7.14792C2.87149 7.04237 2.81219 6.89921 2.81219 6.74995C2.81219 6.60068 2.87149 6.45753 2.97704 6.35198C3.08259 6.24643 3.22574 6.18713 3.37501 6.18713C3.52427 6.18713 3.66743 6.24643 3.77298 6.35198L9.00001 11.5797L14.227 6.35198C14.2793 6.29972 14.3413 6.25826 14.4096 6.22998C14.4779 6.20169 14.5511 6.18713 14.625 6.18713C14.6989 6.18713 14.7721 6.20169 14.8404 6.22998C14.9087 6.25826 14.9707 6.29972 15.023 6.35198C15.0752 6.40424 15.1167 6.46628 15.145 6.53457C15.1733 6.60285 15.1878 6.67604 15.1878 6.74995C15.1878 6.82386 15.1733 6.89704 15.145 6.96533C15.1167 7.03361 15.0752 7.09565 15.023 7.14792Z" fill="black"/>
</svg>
