<svg width="18" height="18" viewBox="0 0 18 18" fill="none" xmlns="http://www.w3.org/2000/svg">
<path d="M11.648 14.227C11.7002 14.2792 11.7417 14.3413 11.77 14.4096C11.7983 14.4779 11.8128 14.551 11.8128 14.6249C11.8128 14.6989 11.7983 14.772 11.77 14.8403C11.7417 14.9086 11.7002 14.9707 11.648 15.0229C11.5957 15.0752 11.5337 15.1166 11.4654 15.1449C11.3971 15.1732 11.3239 15.1878 11.25 15.1878C11.1761 15.1878 11.1029 15.1732 11.0346 15.1449C10.9664 15.1166 10.9043 15.0752 10.852 15.0229L5.22705 9.39792C5.17475 9.34567 5.13326 9.28364 5.10495 9.21535C5.07664 9.14706 5.06207 9.07387 5.06207 8.99995C5.06207 8.92603 5.07664 8.85283 5.10495 8.78454C5.13326 8.71626 5.17475 8.65422 5.22705 8.60198L10.852 2.97698C10.9576 2.87143 11.1007 2.81213 11.25 2.81213C11.3993 2.81213 11.5424 2.87143 11.648 2.97698C11.7535 3.08253 11.8128 3.22568 11.8128 3.37495C11.8128 3.52421 11.7535 3.66737 11.648 3.77292L6.42025 8.99995L11.648 14.227Z" fill="black"/>
</svg>
