<svg width="18" height="18" viewBox="0 0 18 18" fill="none" xmlns="http://www.w3.org/2000/svg">
<path d="M15.023 11.6479C14.9707 11.7002 14.9087 11.7417 14.8404 11.77C14.7721 11.7983 14.6989 11.8129 14.625 11.8129C14.5511 11.8129 14.4779 11.7983 14.4096 11.77C14.3413 11.7417 14.2793 11.7002 14.227 11.6479L9.00001 6.42019L3.77298 11.6479C3.66743 11.7535 3.52427 11.8128 3.37501 11.8128C3.22574 11.8128 3.08259 11.7535 2.97704 11.6479C2.87149 11.5424 2.81219 11.3992 2.81219 11.25C2.81219 11.1007 2.87149 10.9575 2.97704 10.852L8.60204 5.22699C8.65428 5.17469 8.71632 5.1332 8.7846 5.10489C8.85289 5.07658 8.92609 5.06201 9.00001 5.06201C9.07393 5.06201 9.14713 5.07658 9.21541 5.10489C9.2837 5.1332 9.34574 5.17469 9.39798 5.22699L15.023 10.852C15.0753 10.9042 15.1168 10.9663 15.1451 11.0345C15.1734 11.1028 15.188 11.176 15.188 11.25C15.188 11.3239 15.1734 11.3971 15.1451 11.4654C15.1168 11.5336 15.0753 11.5957 15.023 11.6479Z" fill="black"/>
</svg>
