<svg width="18" height="18" viewBox="0 0 18 18" fill="none" xmlns="http://www.w3.org/2000/svg">
<path d="M16.148 5.46042L7.14798 14.4604C7.09574 14.5127 7.0337 14.5542 6.96541 14.5825C6.89713 14.6108 6.82393 14.6254 6.75001 14.6254C6.67609 14.6254 6.60289 14.6108 6.5346 14.5825C6.46632 14.5542 6.40428 14.5127 6.35204 14.4604L2.41454 10.5229C2.30899 10.4174 2.24969 10.2742 2.24969 10.1249C2.24969 9.97568 2.30899 9.83253 2.41454 9.72698C2.52009 9.62143 2.66324 9.56213 2.81251 9.56213C2.96177 9.56213 3.10493 9.62143 3.21048 9.72698L6.75001 13.2672L15.352 4.66448C15.4576 4.55893 15.6007 4.49963 15.75 4.49963C15.8993 4.49963 16.0424 4.55893 16.148 4.66448C16.2535 4.77003 16.3128 4.91318 16.3128 5.06245C16.3128 5.21171 16.2535 5.35487 16.148 5.46042Z" fill="black"/>
</svg>
