<svg width="18" height="18" viewBox="0 0 18 18" fill="none" xmlns="http://www.w3.org/2000/svg">
<path d="M12.5494 8.13516C12.9763 7.72408 13.2762 7.19903 13.4133 6.62245C13.5505 6.04587 13.5191 5.44203 13.323 4.88276C13.1269 4.32348 12.7742 3.83231 12.307 3.46767C11.8398 3.10303 11.2777 2.88026 10.6875 2.82586V1.6875C10.6875 1.53832 10.6282 1.39524 10.5227 1.28975C10.4173 1.18426 10.2742 1.125 10.125 1.125C9.97582 1.125 9.83274 1.18426 9.72725 1.28975C9.62176 1.39524 9.5625 1.53832 9.5625 1.6875V2.8125H8.4375V1.6875C8.4375 1.53832 8.37824 1.39524 8.27275 1.28975C8.16726 1.18426 8.02418 1.125 7.875 1.125C7.72582 1.125 7.58274 1.18426 7.47725 1.28975C7.37176 1.39524 7.3125 1.53832 7.3125 1.6875V2.8125H5.0625C4.91332 2.8125 4.77024 2.87176 4.66475 2.97725C4.55926 3.08274 4.5 3.22582 4.5 3.375C4.5 3.52418 4.55926 3.66726 4.66475 3.77275C4.77024 3.87824 4.91332 3.9375 5.0625 3.9375H5.625V13.5H5.0625C4.91332 13.5 4.77024 13.5593 4.66475 13.6648C4.55926 13.7702 4.5 13.9133 4.5 14.0625C4.5 14.2117 4.55926 14.3548 4.66475 14.4602C4.77024 14.5657 4.91332 14.625 5.0625 14.625H7.3125V15.75C7.3125 15.8992 7.37176 16.0423 7.47725 16.1477C7.58274 16.2532 7.72582 16.3125 7.875 16.3125C8.02418 16.3125 8.16726 16.2532 8.27275 16.1477C8.37824 16.0423 8.4375 15.8992 8.4375 15.75V14.625H9.5625V15.75C9.5625 15.8992 9.62176 16.0423 9.72725 16.1477C9.83274 16.2532 9.97582 16.3125 10.125 16.3125C10.2742 16.3125 10.4173 16.2532 10.5227 16.1477C10.6282 16.0423 10.6875 15.8992 10.6875 15.75V14.625H11.25C12.0301 14.625 12.7861 14.3548 13.3894 13.8603C13.9928 13.3657 14.4062 12.6775 14.5593 11.9126C14.7125 11.1477 14.5959 10.3533 14.2295 9.66464C13.863 8.97596 13.2693 8.43549 12.5494 8.13516ZM12.375 5.90625C12.375 6.42839 12.1676 6.92915 11.7984 7.29837C11.4292 7.66758 10.9284 7.875 10.4063 7.875H6.75V3.9375H10.4063C10.9284 3.9375 11.4292 4.14492 11.7984 4.51413C12.1676 4.88335 12.375 5.38411 12.375 5.90625ZM11.25 13.5H6.75V9H11.25C11.8467 9 12.419 9.23705 12.841 9.65901C13.2629 10.081 13.5 10.6533 13.5 11.25C13.5 11.8467 13.2629 12.419 12.841 12.841C12.419 13.2629 11.8467 13.5 11.25 13.5Z" fill="black"/>
</svg>
