<svg width="18" height="18" viewBox="0 0 18 18" fill="none" xmlns="http://www.w3.org/2000/svg">
<path d="M9.5625 8.4375V15.1875C9.5625 15.3367 9.50324 15.4798 9.39775 15.5852C9.29226 15.6907 9.14918 15.75 9 15.75C8.85082 15.75 8.70774 15.6907 8.60225 15.5852C8.49676 15.4798 8.4375 15.3367 8.4375 15.1875V8.4375C8.4375 8.28832 8.49676 8.14524 8.60225 8.03975C8.70774 7.93426 8.85082 7.875 9 7.875C9.14918 7.875 9.29226 7.93426 9.39775 8.03975C9.50324 8.14524 9.5625 8.28832 9.5625 8.4375ZM14.0625 13.5C13.9133 13.5 13.7702 13.5593 13.6648 13.6648C13.5593 13.7702 13.5 13.9133 13.5 14.0625V15.1875C13.5 15.3367 13.5593 15.4798 13.6648 15.5852C13.7702 15.6907 13.9133 15.75 14.0625 15.75C14.2117 15.75 14.3548 15.6907 14.4602 15.5852C14.5657 15.4798 14.625 15.3367 14.625 15.1875V14.0625C14.625 13.9133 14.5657 13.7702 14.4602 13.6648C14.3548 13.5593 14.2117 13.5 14.0625 13.5ZM15.75 11.25H14.625V2.8125C14.625 2.66332 14.5657 2.52024 14.4602 2.41475C14.3548 2.30926 14.2117 2.25 14.0625 2.25C13.9133 2.25 13.7702 2.30926 13.6648 2.41475C13.5593 2.52024 13.5 2.66332 13.5 2.8125V11.25H12.375C12.2258 11.25 12.0827 11.3093 11.9773 11.4148C11.8718 11.5202 11.8125 11.6633 11.8125 11.8125C11.8125 11.9617 11.8718 12.1048 11.9773 12.2102C12.0827 12.3157 12.2258 12.375 12.375 12.375H15.75C15.8992 12.375 16.0423 12.3157 16.1477 12.2102C16.2532 12.1048 16.3125 11.9617 16.3125 11.8125C16.3125 11.6633 16.2532 11.5202 16.1477 11.4148C16.0423 11.3093 15.8992 11.25 15.75 11.25ZM3.9375 11.25C3.78832 11.25 3.64524 11.3093 3.53975 11.4148C3.43426 11.5202 3.375 11.6633 3.375 11.8125V15.1875C3.375 15.3367 3.43426 15.4798 3.53975 15.5852C3.64524 15.6907 3.78832 15.75 3.9375 15.75C4.08668 15.75 4.22976 15.6907 4.33525 15.5852C4.44074 15.4798 4.5 15.3367 4.5 15.1875V11.8125C4.5 11.6633 4.44074 11.5202 4.33525 11.4148C4.22976 11.3093 4.08668 11.25 3.9375 11.25ZM5.625 9H4.5V2.8125C4.5 2.66332 4.44074 2.52024 4.33525 2.41475C4.22976 2.30926 4.08668 2.25 3.9375 2.25C3.78832 2.25 3.64524 2.30926 3.53975 2.41475C3.43426 2.52024 3.375 2.66332 3.375 2.8125V9H2.25C2.10082 9 1.95774 9.05926 1.85225 9.16475C1.74676 9.27024 1.6875 9.41332 1.6875 9.5625C1.6875 9.71168 1.74676 9.85476 1.85225 9.96025C1.95774 10.0657 2.10082 10.125 2.25 10.125H5.625C5.77418 10.125 5.91726 10.0657 6.02275 9.96025C6.12824 9.85476 6.1875 9.71168 6.1875 9.5625C6.1875 9.41332 6.12824 9.27024 6.02275 9.16475C5.91726 9.05926 5.77418 9 5.625 9ZM10.6875 5.625H9.5625V2.8125C9.5625 2.66332 9.50324 2.52024 9.39775 2.41475C9.29226 2.30926 9.14918 2.25 9 2.25C8.85082 2.25 8.70774 2.30926 8.60225 2.41475C8.49676 2.52024 8.4375 2.66332 8.4375 2.8125V5.625H7.3125C7.16332 5.625 7.02024 5.68426 6.91475 5.78975C6.80926 5.89524 6.75 6.03832 6.75 6.1875C6.75 6.33668 6.80926 6.47976 6.91475 6.58525C7.02024 6.69074 7.16332 6.75 7.3125 6.75H10.6875C10.8367 6.75 10.9798 6.69074 11.0852 6.58525C11.1907 6.47976 11.25 6.33668 11.25 6.1875C11.25 6.03832 11.1907 5.89524 11.0852 5.78975C10.9798 5.68426 10.8367 5.625 10.6875 5.625Z" fill="black"/>
</svg>
