<svg width="18" height="18" viewBox="0 0 18 18" fill="none" xmlns="http://www.w3.org/2000/svg">
<path d="M9 5.62503C8.33249 5.62503 7.67997 5.82297 7.12495 6.19382C6.56994 6.56467 6.13736 7.09178 5.88191 7.70848C5.62646 8.32518 5.55963 9.00378 5.68985 9.65846C5.82008 10.3131 6.14152 10.9145 6.61352 11.3865C7.08552 11.8585 7.68689 12.18 8.34157 12.3102C8.99626 12.4404 9.67486 12.3736 10.2916 12.1181C10.9083 11.8627 11.4354 11.4301 11.8062 10.8751C12.1771 10.3201 12.375 9.66755 12.375 9.00003C12.3741 8.10521 12.0182 7.24731 11.3855 6.61458C10.7527 5.98184 9.89482 5.62596 9 5.62503ZM9 11.25C8.555 11.25 8.11998 11.1181 7.74997 10.8708C7.37996 10.6236 7.09157 10.2722 6.92127 9.86107C6.75098 9.44994 6.70642 8.99754 6.79324 8.56108C6.88005 8.12462 7.09434 7.72371 7.40901 7.40904C7.72368 7.09437 8.12459 6.88008 8.56105 6.79327C8.99751 6.70645 9.44991 6.75101 9.86104 6.9213C10.2722 7.0916 10.6236 7.37999 10.8708 7.75C11.118 8.12001 11.25 8.55503 11.25 9.00003C11.25 9.59677 11.0129 10.1691 10.591 10.591C10.169 11.013 9.59674 11.25 9 11.25ZM15.1875 9.15191C15.1903 9.05066 15.1903 8.94941 15.1875 8.84816L16.2366 7.53753C16.2916 7.46872 16.3296 7.38795 16.3477 7.30172C16.3658 7.2155 16.3634 7.12624 16.3406 7.04113C16.1687 6.39467 15.9114 5.77399 15.5756 5.19542C15.5317 5.11971 15.4706 5.0553 15.3974 5.00733C15.3242 4.95936 15.2407 4.92915 15.1538 4.9191L13.4859 4.73347C13.4166 4.66035 13.3463 4.59003 13.275 4.52253L13.0781 2.8505C13.068 2.76346 13.0377 2.67999 12.9896 2.60675C12.9415 2.5335 12.8769 2.47251 12.8011 2.42863C12.2223 2.09348 11.6017 1.83648 10.9554 1.66433C10.8702 1.64169 10.7809 1.63937 10.6947 1.65757C10.6085 1.67577 10.5277 1.71397 10.459 1.76909L9.15188 2.81253C9.05063 2.81253 8.94938 2.81253 8.84813 2.81253L7.5375 1.76558C7.46869 1.71057 7.38792 1.6725 7.30169 1.65442C7.21547 1.63635 7.12621 1.63878 7.0411 1.66152C6.39475 1.8338 5.7741 2.09104 5.19539 2.42652C5.11968 2.47048 5.05527 2.53151 5.0073 2.60475C4.95933 2.67799 4.92911 2.76142 4.91906 2.84839L4.73344 4.51902C4.66031 4.58886 4.59 4.65917 4.5225 4.72995L2.85047 4.92191C2.76343 4.93203 2.67996 4.96235 2.60672 5.01045C2.53347 5.05855 2.47248 5.12309 2.4286 5.19894C2.09345 5.77773 1.83645 6.39836 1.6643 7.04464C1.64166 7.12981 1.63934 7.2191 1.65754 7.30533C1.67574 7.39155 1.71394 7.4723 1.76906 7.54105L2.8125 8.84816C2.8125 8.94941 2.8125 9.05066 2.8125 9.15191L1.76555 10.4625C1.71054 10.5313 1.67247 10.6121 1.65439 10.6983C1.63632 10.7846 1.63875 10.8738 1.66149 10.9589C1.83346 11.6054 2.09072 12.2261 2.42649 12.8046C2.47045 12.8804 2.53148 12.9448 2.60472 12.9927C2.67796 13.0407 2.76139 13.0709 2.84836 13.081L4.51617 13.2666C4.58602 13.3397 4.65633 13.41 4.72711 13.4775L4.92188 15.1496C4.932 15.2366 4.96232 15.3201 5.01042 15.3933C5.05852 15.4666 5.12306 15.5276 5.19891 15.5714C5.7777 15.9066 6.39833 16.1636 7.04461 16.3357C7.12978 16.3584 7.21907 16.3607 7.3053 16.3425C7.39152 16.3243 7.47227 16.2861 7.54102 16.231L8.84813 15.1875C8.94938 15.1903 9.05063 15.1903 9.15188 15.1875L10.4625 16.2366C10.5313 16.2916 10.6121 16.3297 10.6983 16.3478C10.7845 16.3658 10.8738 16.3634 10.9589 16.3407C11.6054 16.1687 12.226 15.9114 12.8046 15.5757C12.8803 15.5317 12.9447 15.4707 12.9927 15.3974C13.0407 15.3242 13.0709 15.2408 13.0809 15.1538L13.2666 13.486C13.3397 13.4166 13.41 13.3463 13.4775 13.275L15.1495 13.0782C15.2366 13.068 15.32 13.0377 15.3933 12.9896C15.4665 12.9415 15.5275 12.877 15.5714 12.8011C15.9066 12.2223 16.1636 11.6017 16.3357 10.9554C16.3584 10.8703 16.3607 10.781 16.3425 10.6947C16.3243 10.6085 16.2861 10.5278 16.2309 10.459L15.1875 9.15191ZM14.0555 8.69488C14.0674 8.89814 14.0674 9.10193 14.0555 9.30519C14.0471 9.44435 14.0907 9.58166 14.1778 9.6905L15.1756 10.9371C15.0611 11.301 14.9145 11.6539 14.7375 11.9918L13.1484 12.1718C13.0101 12.1872 12.8823 12.2533 12.7898 12.3575C12.6545 12.5097 12.5103 12.6538 12.3581 12.7892C12.254 12.8816 12.1879 13.0094 12.1725 13.1478L11.996 14.7354C11.6582 14.9125 11.3052 15.0591 10.9413 15.1735L9.69399 14.1757C9.59417 14.096 9.47019 14.0526 9.34242 14.0527H9.30868C9.10541 14.0646 8.90162 14.0646 8.69836 14.0527C8.5592 14.0443 8.42189 14.0879 8.31305 14.175L7.06289 15.1735C6.69905 15.059 6.3461 14.9124 6.00821 14.7354L5.82821 13.1485C5.81284 13.0101 5.7467 12.8823 5.64258 12.7899C5.49036 12.6545 5.34621 12.5104 5.21086 12.3582C5.11842 12.254 4.99065 12.1879 4.85227 12.1725L3.26461 11.9953C3.08756 11.6575 2.94096 11.3045 2.82656 10.9407L3.8243 9.69332C3.91142 9.58448 3.95502 9.44716 3.94664 9.308C3.93469 9.10474 3.93469 8.90095 3.94664 8.69769C3.95502 8.55853 3.91142 8.42122 3.8243 8.31238L2.82656 7.06292C2.94105 6.69908 3.08764 6.34613 3.26461 6.00824L4.85156 5.82824C4.98995 5.81287 5.11772 5.74674 5.21016 5.64261C5.3455 5.49039 5.48966 5.34624 5.64188 5.21089C5.74642 5.11839 5.81283 4.99033 5.82821 4.8516L6.00469 3.26464C6.34254 3.08759 6.6955 2.94099 7.05938 2.82659L8.30672 3.82433C8.41556 3.91145 8.55287 3.95505 8.69203 3.94667C8.8953 3.93472 9.09909 3.93472 9.30235 3.94667C9.44151 3.95505 9.57882 3.91145 9.68766 3.82433L10.9371 2.82659C11.301 2.94108 11.6539 3.08767 11.9918 3.26464L12.1718 4.8516C12.1872 4.98998 12.2533 5.11775 12.3574 5.21019C12.5096 5.34553 12.6538 5.48969 12.7891 5.64191C12.8816 5.74603 13.0094 5.81217 13.1477 5.82753L14.7354 6.00402C14.9124 6.34187 15.059 6.69483 15.1734 7.05871L14.1757 8.30605C14.0877 8.4158 14.0441 8.55453 14.0534 8.69488H14.0555Z" fill="black"/>
</svg>
