<svg width="18" height="18" viewBox="0 0 18 18" fill="none" xmlns="http://www.w3.org/2000/svg">
<path d="M15.4202 7.64162L9.79524 2.01662C9.58428 1.8058 9.29824 1.68738 9 1.68738C8.70176 1.68738 8.41572 1.8058 8.20477 2.01662L2.57977 7.64162C2.47479 7.74582 2.39158 7.86984 2.33497 8.00648C2.27836 8.14312 2.24947 8.28966 2.25 8.43756V15.1876C2.25 15.3367 2.30926 15.4798 2.41475 15.5853C2.52024 15.6908 2.66332 15.7501 2.8125 15.7501H7.3125C7.46169 15.7501 7.60476 15.6908 7.71025 15.5853C7.81574 15.4798 7.875 15.3367 7.875 15.1876V11.2501H10.125V15.1876C10.125 15.3367 10.1843 15.4798 10.2898 15.5853C10.3952 15.6908 10.5383 15.7501 10.6875 15.7501H15.1875C15.3367 15.7501 15.4798 15.6908 15.5852 15.5853C15.6907 15.4798 15.75 15.3367 15.75 15.1876V8.43756C15.7505 8.28966 15.7216 8.14312 15.665 8.00648C15.6084 7.86984 15.5252 7.74582 15.4202 7.64162ZM14.625 14.6251H11.25V10.6876C11.25 10.5384 11.1907 10.3953 11.0852 10.2898C10.9798 10.1843 10.8367 10.1251 10.6875 10.1251H7.3125C7.16332 10.1251 7.02024 10.1843 6.91475 10.2898C6.80926 10.3953 6.75 10.5384 6.75 10.6876V14.6251H3.375V8.43756L9 2.81256L14.625 8.43756V14.6251Z" fill="black"/>
</svg>
