<svg width="18" height="18" viewBox="0 0 18 18" fill="none" xmlns="http://www.w3.org/2000/svg">
<path d="M16.4208 10.0006C16.3486 9.92829 16.2582 9.87699 16.1591 9.85222C16.06 9.82745 15.956 9.83012 15.8583 9.85997C14.7857 10.1842 13.6453 10.2114 12.5585 9.93863C11.4717 9.66585 10.4793 9.10334 9.68693 8.31102C8.89461 7.5187 8.33209 6.52626 8.05932 5.43946C7.78654 4.35266 7.81373 3.21222 8.13798 2.13965C8.16808 2.04192 8.17096 1.93783 8.14632 1.83859C8.12168 1.73934 8.07045 1.64868 7.99814 1.57637C7.92583 1.50406 7.83518 1.45283 7.73593 1.42819C7.63668 1.40355 7.53259 1.40644 7.43486 1.43653C5.95199 1.89078 4.65016 2.80115 3.71462 4.03809C2.89648 5.12432 2.39743 6.41717 2.27354 7.77138C2.14966 9.1256 2.40585 10.4875 3.01333 11.7042C3.62081 12.9208 4.55552 13.944 5.71244 14.6587C6.86935 15.3734 8.20264 15.7513 9.56251 15.75C11.149 15.7549 12.6933 15.2392 13.9585 14.2819C15.1954 13.3464 16.1058 12.0446 16.56 10.5617C16.5898 10.4643 16.5925 10.3607 16.568 10.2619C16.5435 10.1631 16.4926 10.0728 16.4208 10.0006ZM13.282 13.3833C12.0906 14.2807 10.6152 14.7175 9.12724 14.6133C7.63933 14.5091 6.23913 13.871 5.18439 12.8163C4.12966 11.7617 3.49139 10.3615 3.38709 8.87362C3.28278 7.38571 3.71946 5.9102 4.61673 4.71872C5.20131 3.94673 5.95708 3.32094 6.82455 2.89059C6.77513 3.23739 6.75022 3.58724 6.75001 3.93754C6.75206 5.87631 7.52314 7.73509 8.89406 9.106C10.265 10.4769 12.1237 11.248 14.0625 11.25C14.4135 11.2499 14.7641 11.225 15.1116 11.1755C14.6808 12.0431 14.0545 12.7989 13.282 13.3833Z" fill="black"/>
</svg>
