<svg width="18" height="18" viewBox="0 0 18 18" fill="none" xmlns="http://www.w3.org/2000/svg">
<path d="M15.7275 4.65115L9.54 1.26561C9.37468 1.17426 9.18888 1.12634 9 1.12634C8.81112 1.12634 8.62532 1.17426 8.46 1.26561L2.2725 4.65256C2.0958 4.74924 1.94829 4.89159 1.84539 5.06475C1.74248 5.2379 1.68796 5.43551 1.6875 5.63694V12.3616C1.68796 12.563 1.74248 12.7607 1.84539 12.9338C1.94829 13.107 2.0958 13.2493 2.2725 13.346L8.46 16.733C8.62532 16.8243 8.81112 16.8722 9 16.8722C9.18888 16.8722 9.37468 16.8243 9.54 16.733L15.7275 13.346C15.9042 13.2493 16.0517 13.107 16.1546 12.9338C16.2575 12.7607 16.312 12.563 16.3125 12.3616V5.63764C16.3124 5.43586 16.2581 5.23781 16.1551 5.06425C16.0522 4.89069 15.9045 4.74801 15.7275 4.65115ZM9 2.24998L14.6489 5.34373L12.5557 6.48983L6.90609 3.39608L9 2.24998ZM9 8.43748L3.35109 5.34373L5.73469 4.03873L11.3836 7.13248L9 8.43748ZM2.8125 6.32811L8.4375 9.40639V15.4385L2.8125 12.3623V6.32811ZM15.1875 12.3595L9.5625 15.4385V9.4092L11.8125 8.17803V10.6875C11.8125 10.8367 11.8718 10.9797 11.9773 11.0852C12.0827 11.1907 12.2258 11.25 12.375 11.25C12.5242 11.25 12.6673 11.1907 12.7727 11.0852C12.8782 10.9797 12.9375 10.8367 12.9375 10.6875V7.56209L15.1875 6.32811V12.3588V12.3595Z" fill="black"/>
</svg>
