<svg width="18" height="18" viewBox="0 0 18 18" fill="none" xmlns="http://www.w3.org/2000/svg">
<path d="M12.5269 12.375H7.82721C7.74207 12.8789 7.54365 13.3568 7.2469 13.7727C6.95016 14.1887 6.56284 14.5318 6.11416 14.7763C5.66548 15.0208 5.16715 15.1602 4.65674 15.184C4.14634 15.2078 3.63719 15.1154 3.16769 14.9138C2.69818 14.7122 2.28059 14.4066 1.94639 14.0201C1.61219 13.6336 1.37012 13.1763 1.23842 12.6826C1.10672 12.1889 1.08884 11.6717 1.18613 11.1701C1.28341 10.6685 1.49332 10.1955 1.80002 9.78683C1.88962 9.66749 2.02297 9.58862 2.17072 9.56759C2.31847 9.54656 2.46852 9.58508 2.58787 9.67469C2.70722 9.76429 2.78608 9.89763 2.80712 10.0454C2.82815 10.1931 2.78962 10.3432 2.70002 10.4625C2.4065 10.8513 2.24843 11.3254 2.25002 11.8125C2.25002 12.4093 2.48707 12.9816 2.90903 13.4035C3.33099 13.8255 3.90328 14.0625 4.50002 14.0625C5.09676 14.0625 5.66905 13.8255 6.09101 13.4035C6.51297 12.9816 6.75002 12.4093 6.75002 11.8125C6.75002 11.6634 6.80929 11.5203 6.91477 11.4148C7.02026 11.3093 7.16334 11.25 7.31252 11.25H12.5269C12.6507 11.0356 12.8419 10.8679 13.0707 10.7732C13.2995 10.6784 13.5531 10.6618 13.7923 10.7259C14.0316 10.79 14.2429 10.9312 14.3937 11.1277C14.5445 11.3242 14.6262 11.5649 14.6262 11.8125C14.6262 12.0602 14.5445 12.3009 14.3937 12.4974C14.2429 12.6939 14.0316 12.8351 13.7923 12.8992C13.5531 12.9633 13.2995 12.9467 13.0707 12.8519C12.8419 12.7571 12.6507 12.5895 12.5269 12.375ZM4.50002 12.9375C4.69487 12.9376 4.8864 12.8871 5.05584 12.7909C5.22529 12.6947 5.36685 12.5561 5.46665 12.3888C5.56645 12.2214 5.62107 12.031 5.62517 11.8362C5.62927 11.6414 5.5827 11.4489 5.49002 11.2775L8.0051 7.18949C8.08316 7.06248 8.1076 6.90967 8.07305 6.76465C8.03851 6.61962 7.94781 6.49424 7.82088 6.41605C7.52023 6.23096 7.26735 5.97772 7.0827 5.6768C6.89804 5.37588 6.7868 5.03573 6.75795 4.68385C6.72911 4.33197 6.78347 3.97824 6.91666 3.65127C7.04984 3.32429 7.2581 3.03325 7.52459 2.80167C7.79109 2.57009 8.10834 2.40447 8.4507 2.31821C8.79306 2.23195 9.15091 2.22747 9.49533 2.30513C9.83974 2.38278 10.161 2.5404 10.4333 2.76523C10.7055 2.99006 10.921 3.2758 11.0623 3.59933C11.122 3.73612 11.2335 3.84359 11.3724 3.89812C11.5114 3.95264 11.6662 3.94975 11.803 3.89008C11.9398 3.8304 12.0473 3.71884 12.1018 3.57992C12.1563 3.441 12.1534 3.28612 12.0938 3.14933C11.8911 2.68613 11.587 2.27438 11.2039 1.94447C10.8208 1.61457 10.3685 1.37496 9.88034 1.24334C9.39219 1.11171 8.88071 1.09144 8.38368 1.18402C7.88665 1.27659 7.41677 1.47965 7.00875 1.7782C6.60072 2.07674 6.26499 2.46314 6.02634 2.90885C5.78769 3.35456 5.65223 3.84819 5.62995 4.35328C5.60768 4.85837 5.69917 5.36201 5.89766 5.82699C6.09616 6.29198 6.39658 6.70643 6.77674 7.03972L4.53096 10.6875C4.52041 10.6875 4.51057 10.6875 4.50002 10.6875C4.20165 10.6875 3.9155 10.8061 3.70453 11.017C3.49355 11.228 3.37502 11.5142 3.37502 11.8125C3.37502 12.1109 3.49355 12.3971 3.70453 12.608C3.9155 12.819 4.20165 12.9375 4.50002 12.9375ZM13.5 8.43754C13.0663 8.43757 12.6367 8.52087 12.2344 8.68293L9.99002 5.03441C10.107 4.8177 10.1496 4.56858 10.1114 4.3253C10.0731 4.08202 9.95611 3.85801 9.77827 3.68764C9.60043 3.51728 9.3716 3.40998 9.1269 3.38221C8.8822 3.35444 8.63515 3.40773 8.42365 3.53391C8.21216 3.66008 8.04791 3.85217 7.95611 4.08069C7.86432 4.30922 7.85004 4.56155 7.91548 4.79897C7.98092 5.03639 8.12246 5.24577 8.31837 5.395C8.51428 5.54422 8.75375 5.62503 9.00002 5.62504H9.03096L11.5467 9.71371C11.625 9.84052 11.7505 9.93108 11.8955 9.96548C12.0405 9.99989 12.1933 9.97534 12.3202 9.89722C12.6163 9.71466 12.9508 9.60326 13.2972 9.57177C13.6437 9.54028 13.9928 9.58957 14.317 9.71575C14.6412 9.84194 14.9317 10.0416 15.1657 10.299C15.3998 10.5564 15.5709 10.8646 15.6657 11.1993C15.7605 11.5341 15.7764 11.8862 15.7122 12.2281C15.6479 12.57 15.5052 12.8924 15.2954 13.1699C15.0855 13.4473 14.8141 13.6724 14.5026 13.8272C14.1911 13.9821 13.8479 14.0627 13.5 14.0625C13.3508 14.0625 13.2078 14.1218 13.1023 14.2273C12.9968 14.3328 12.9375 14.4759 12.9375 14.625C12.9375 14.7742 12.9968 14.9173 13.1023 15.0228C13.2078 15.1283 13.3508 15.1875 13.5 15.1875C14.3951 15.1875 15.2536 14.832 15.8865 14.199C16.5194 13.5661 16.875 12.7076 16.875 11.8125C16.875 10.9174 16.5194 10.059 15.8865 9.42605C15.2536 8.79312 14.3951 8.43754 13.5 8.43754Z" fill="black"/>
</svg>
