<svg width="18" height="18" viewBox="0 0 18 18" fill="none" xmlns="http://www.w3.org/2000/svg">
<g clip-path="url(#clip0_2_1360)">
<path d="M13.773 13.773C13.6675 13.8785 13.5244 13.9378 13.3752 13.9378C13.226 13.9378 13.083 13.8785 12.9775 13.773L9 9.79554L5.02252 13.773C4.91704 13.8785 4.77396 13.9378 4.62478 13.9378C4.47559 13.9378 4.33252 13.8785 4.22703 13.773C4.12154 13.6675 4.06228 13.5245 4.06228 13.3753C4.06228 13.2261 4.12154 13.083 4.22703 12.9775L8.2045 9.00004L4.22703 5.02257C4.12154 4.91708 4.06228 4.774 4.06228 4.62482C4.06228 4.47564 4.12154 4.33256 4.22703 4.22707C4.33252 4.12158 4.47559 4.06232 4.62478 4.06232C4.77396 4.06232 4.91704 4.12158 5.02252 4.22707L9 8.20455L12.9775 4.22707C13.083 4.12158 13.226 4.06232 13.3752 4.06232C13.5244 4.06232 13.6675 4.12158 13.773 4.22707C13.8785 4.33256 13.9377 4.47564 13.9377 4.62482C13.9377 4.774 13.8785 4.91708 13.773 5.02257L9.7955 9.00004L13.773 12.9775C13.8785 13.083 13.9377 13.2261 13.9377 13.3753C13.9377 13.5245 13.8785 13.6675 13.773 13.773Z" fill="black"/>
</g>
<defs>
<clipPath id="clip0_2_1360">
<rect width="18" height="18" fill="white"/>
</clipPath>
</defs>
</svg>
