<svg width="125" height="27" viewBox="0 0 125 27" fill="none" xmlns="http://www.w3.org/2000/svg">
<rect width="27" height="27" rx="13.5" fill="#FF5512"/>
<path d="M20.0674 15.8779H18.8037C18.8366 16.0798 18.8535 16.2933 18.8535 16.5186C18.8535 17.2882 18.6564 17.9722 18.2627 18.5693C17.8734 19.1664 17.3069 19.6374 16.5635 19.9824C15.8242 20.3274 14.9288 20.5 13.8789 20.5C12.873 20.5 12.0024 20.3385 11.2676 20.0156C10.5328 19.6928 9.95752 19.2352 9.54199 18.6426C9.12642 18.0454 8.89726 17.3369 8.85352 16.5186H10.8867C10.9261 17.0094 11.084 17.4188 11.3594 17.7461C11.6393 18.0689 11.9958 18.3105 12.4287 18.4697C12.8662 18.6245 13.3457 18.7021 13.8662 18.7021C14.4393 18.7021 14.9493 18.611 15.3955 18.4297C15.8459 18.2439 16.2 17.9874 16.458 17.6602C16.7161 17.3284 16.8447 16.9414 16.8447 16.499C16.8447 16.2678 16.8065 16.061 16.7314 15.8779H6.93262V14.4189H20.0674V15.8779ZM13.9775 6.5C14.8874 6.5 15.6902 6.6615 16.3857 6.98438C17.0857 7.30728 17.6366 7.75217 18.0391 8.31836C18.4415 8.88011 18.6514 9.52603 18.6689 10.2559H16.7139C16.6439 9.62774 16.3551 9.14092 15.8477 8.7959C15.3402 8.44647 14.7015 8.27148 13.9316 8.27148C13.3805 8.2715 12.9034 8.36019 12.501 8.53711C12.0987 8.70961 11.7865 8.94879 11.5635 9.25391C11.3448 9.55469 11.2354 9.8974 11.2354 10.2822C11.2354 10.605 11.3093 10.8838 11.458 11.1182C11.5506 11.2599 11.662 11.3856 11.7881 11.5H20.0674V12.959H15.8555C15.8564 12.9593 15.8574 12.9596 15.8584 12.96H10.4912L10.4902 12.959H6.93262V11.5H9.38184C9.27042 11.1668 9.21387 10.8008 9.21387 10.4014C9.21388 9.61859 9.42396 8.93537 9.84375 8.35156C10.2637 7.76772 10.8325 7.31411 11.5498 6.99121C12.2672 6.66391 13.0765 6.50002 13.9775 6.5Z" fill="white"/>
<path d="M45.5781 10.848C45.5099 10.2429 45.2287 9.77415 44.7344 9.44176C44.2401 9.10511 43.6179 8.93679 42.8679 8.93679C42.331 8.93679 41.8665 9.02202 41.4744 9.19247C41.0824 9.35866 40.7777 9.58878 40.5604 9.88281C40.3473 10.1726 40.2408 10.5028 40.2408 10.8736C40.2408 11.1847 40.3132 11.4531 40.4581 11.679C40.6072 11.9048 40.8011 12.0945 41.0398 12.2479C41.2827 12.397 41.5426 12.5227 41.8196 12.625C42.0966 12.723 42.3629 12.804 42.6186 12.8679L43.897 13.2003C44.3146 13.3026 44.7429 13.4411 45.1818 13.6158C45.6207 13.7905 46.0277 14.0206 46.4027 14.3061C46.7777 14.5916 47.0803 14.9453 47.3104 15.3672C47.5447 15.7891 47.6619 16.294 47.6619 16.8821C47.6619 17.6236 47.4702 18.282 47.0866 18.8572C46.7074 19.4325 46.1555 19.8864 45.4311 20.2188C44.7109 20.5511 43.8395 20.7173 42.8168 20.7173C41.8366 20.7173 40.9886 20.5618 40.2727 20.2507C39.5568 19.9396 38.9964 19.4986 38.5916 18.9276C38.1868 18.3523 37.9631 17.6705 37.9205 16.8821H39.902C39.9403 17.3551 40.0938 17.7493 40.3622 18.0646C40.6349 18.3757 40.9822 18.608 41.4041 18.7614C41.8303 18.9105 42.2969 18.9851 42.804 18.9851C43.3622 18.9851 43.8587 18.8977 44.2933 18.723C44.7322 18.544 45.0774 18.2969 45.3288 17.9815C45.5803 17.6619 45.706 17.2891 45.706 16.8629C45.706 16.4751 45.5952 16.1577 45.3736 15.9105C45.1563 15.6634 44.8601 15.4588 44.4851 15.2969C44.1143 15.1349 43.6946 14.9922 43.2259 14.8686L41.679 14.4467C40.6307 14.1612 39.7997 13.7415 39.1861 13.1875C38.5767 12.6335 38.272 11.9006 38.272 10.9886C38.272 10.2344 38.4766 9.57599 38.8857 9.01349C39.2947 8.45099 39.8487 8.0142 40.5476 7.70312C41.2464 7.38778 42.0348 7.23011 42.9126 7.23011C43.799 7.23011 44.581 7.38565 45.2585 7.69673C45.9403 8.00781 46.4773 8.43608 46.8693 8.98153C47.2614 9.52273 47.4659 10.1449 47.483 10.848H45.5781ZM54.0919 10.6818V12.2159H48.729V10.6818H54.0919ZM50.1672 8.32955H52.0784V17.6172C52.0784 17.9879 52.1338 18.267 52.2446 18.4545C52.3554 18.6378 52.4981 18.7635 52.6728 18.8317C52.8518 18.8956 53.0457 18.9276 53.2545 18.9276C53.4079 18.9276 53.5422 18.9169 53.6572 18.8956C53.7723 18.8743 53.8618 18.8572 53.9257 18.8445L54.2709 20.4233C54.1601 20.4659 54.0024 20.5085 53.7978 20.5511C53.5933 20.598 53.3376 20.6236 53.0308 20.6278C52.528 20.6364 52.0592 20.5469 51.6246 20.3594C51.1899 20.1719 50.8383 19.8821 50.5699 19.4901C50.3014 19.098 50.1672 18.6058 50.1672 18.0135V8.32955ZM58.7033 20.7173C58.0811 20.7173 57.5186 20.6023 57.0158 20.3722C56.513 20.1378 56.1145 19.799 55.8205 19.3558C55.5307 18.9126 55.3858 18.3693 55.3858 17.7259C55.3858 17.1719 55.4924 16.7159 55.7054 16.358C55.9185 16 56.2061 15.7166 56.5684 15.5078C56.9306 15.299 57.3354 15.1413 57.7828 15.0348C58.2303 14.9283 58.6863 14.8473 59.1507 14.7919C59.7388 14.7237 60.2161 14.6683 60.5826 14.6257C60.949 14.5788 61.2154 14.5043 61.3816 14.402C61.5478 14.2997 61.6309 14.1335 61.6309 13.9034V13.8587C61.6309 13.3004 61.4732 12.8679 61.1578 12.5611C60.8468 12.2543 60.3823 12.1009 59.7644 12.1009C59.1209 12.1009 58.6138 12.2436 58.2431 12.5291C57.8766 12.8104 57.623 13.1236 57.4824 13.4688L55.6863 13.0597C55.8993 12.4631 56.2104 11.9815 56.6195 11.6151C57.0328 11.2443 57.508 10.9759 58.0449 10.8097C58.5818 10.6392 59.1465 10.554 59.7388 10.554C60.1309 10.554 60.5463 10.6009 60.9853 10.6946C61.4284 10.7841 61.8418 10.9503 62.2253 11.1932C62.6131 11.4361 62.9306 11.7834 63.1777 12.2351C63.4249 12.6825 63.5485 13.2642 63.5485 13.9801V20.5H61.682V19.1577H61.6053C61.4817 19.4048 61.2963 19.6477 61.0492 19.8864C60.802 20.125 60.4845 20.3232 60.0968 20.4808C59.709 20.6385 59.2445 20.7173 58.7033 20.7173ZM59.1188 19.1832C59.6472 19.1832 60.0989 19.0788 60.4739 18.87C60.8532 18.6612 61.1408 18.3885 61.3368 18.0518C61.5371 17.7109 61.6372 17.3466 61.6372 16.9588V15.6932C61.5691 15.7614 61.437 15.8253 61.2409 15.8849C61.0492 15.9403 60.8297 15.9893 60.5826 16.032C60.3354 16.0703 60.0946 16.1065 59.8603 16.1406C59.6259 16.1705 59.4299 16.196 59.2722 16.2173C58.9014 16.2642 58.5627 16.343 58.2559 16.4538C57.9533 16.5646 57.7104 16.7244 57.5272 16.9332C57.3482 17.1378 57.2587 17.4105 57.2587 17.7514C57.2587 18.2244 57.4334 18.5824 57.7828 18.8253C58.1323 19.0639 58.5776 19.1832 59.1188 19.1832ZM69.8698 20.6982C68.9195 20.6982 68.1013 20.483 67.4152 20.0526C66.7334 19.6179 66.2092 19.0192 65.8428 18.2564C65.4763 17.4936 65.293 16.62 65.293 15.6357C65.293 14.6385 65.4805 13.7585 65.8555 12.9957C66.2305 12.2287 66.759 11.63 67.4408 11.1996C68.1226 10.7692 68.9259 10.554 69.8506 10.554C70.5963 10.554 71.2611 10.6925 71.8449 10.9695C72.4287 11.2422 72.8996 11.6257 73.2575 12.12C73.6198 12.6143 73.835 13.1918 73.9031 13.8523H72.043C71.9408 13.392 71.7064 12.9957 71.3399 12.6634C70.9777 12.331 70.4919 12.1648 69.8825 12.1648C69.3499 12.1648 68.8832 12.3054 68.4827 12.5866C68.0864 12.8636 67.7774 13.2599 67.5558 13.7756C67.3342 14.2869 67.2234 14.892 67.2234 15.5909C67.2234 16.3068 67.3321 16.9247 67.5494 17.4446C67.7668 17.9645 68.0736 18.3672 68.4699 18.6527C68.8705 18.9382 69.3413 19.081 69.8825 19.081C70.2448 19.081 70.5729 19.0149 70.8669 18.8828C71.1652 18.7464 71.4145 18.5526 71.6148 18.3011C71.8193 18.0497 71.9621 17.7472 72.043 17.3935H73.9031C73.835 18.0284 73.6283 18.5952 73.2831 19.0938C72.9379 19.5923 72.4756 19.9844 71.896 20.2699C71.3207 20.5554 70.6453 20.6982 69.8698 20.6982ZM77.3448 17.1697L77.332 14.8366H77.6644L81.5763 10.6818H83.8647L79.403 15.4119H79.1026L77.3448 17.1697ZM75.587 20.5V7.40909H77.4982V20.5H75.587ZM81.7873 20.5L78.2716 15.8338L79.5884 14.4979L84.1332 20.5H81.7873ZM92.6038 13.0788L90.8715 13.3857C90.7991 13.1641 90.684 12.9531 90.5264 12.7528C90.3729 12.5526 90.1641 12.3885 89.8999 12.2607C89.6357 12.1328 89.3055 12.0689 88.9092 12.0689C88.368 12.0689 87.9163 12.1903 87.554 12.4332C87.1918 12.6719 87.0107 12.9808 87.0107 13.3601C87.0107 13.6882 87.1322 13.9524 87.3751 14.1527C87.618 14.353 88.01 14.517 88.5512 14.6449L90.1109 15.0028C91.0143 15.2116 91.6876 15.5334 92.1308 15.968C92.5739 16.4027 92.7955 16.9673 92.7955 17.6619C92.7955 18.25 92.6251 18.7741 92.2842 19.2344C91.9475 19.6903 91.4766 20.0483 90.8715 20.3082C90.2707 20.5682 89.5739 20.6982 88.7813 20.6982C87.6819 20.6982 86.7849 20.4638 86.0903 19.995C85.3957 19.522 84.9695 18.8509 84.8119 17.9815L86.6592 17.7003C86.7742 18.1818 87.0107 18.5462 87.3687 18.7933C87.7266 19.0362 88.1933 19.1577 88.7685 19.1577C89.395 19.1577 89.8957 19.0277 90.2707 18.7678C90.6457 18.5036 90.8332 18.1818 90.8332 17.8026C90.8332 17.4957 90.7181 17.2379 90.488 17.0291C90.2621 16.8203 89.9148 16.6626 89.4461 16.5561L87.7842 16.1918C86.868 15.983 86.1904 15.6506 85.7515 15.1946C85.3168 14.7386 85.0995 14.1612 85.0995 13.4624C85.0995 12.8828 85.2614 12.3757 85.5853 11.9411C85.9092 11.5064 86.3566 11.1676 86.9276 10.9247C87.4987 10.6776 88.1528 10.554 88.89 10.554C89.9511 10.554 90.7863 10.7841 91.3957 11.2443C92.005 11.7003 92.4077 12.3118 92.6038 13.0788ZM94.6903 20.5V7.40909H99.3565C100.375 7.40909 101.219 7.59446 101.888 7.9652C102.557 8.33594 103.058 8.84304 103.39 9.48651C103.722 10.1257 103.888 10.8459 103.888 11.647C103.888 12.4524 103.72 13.1768 103.384 13.8203C103.051 14.4595 102.548 14.9666 101.875 15.3416C101.206 15.7124 100.364 15.8977 99.3501 15.8977H96.1413V14.223H99.1711C99.8146 14.223 100.337 14.1122 100.737 13.8906C101.138 13.6648 101.432 13.358 101.619 12.9702C101.807 12.5824 101.901 12.1413 101.901 11.647C101.901 11.1527 101.807 10.7138 101.619 10.3303C101.432 9.94673 101.136 9.64631 100.731 9.42898C100.33 9.21165 99.8018 9.10298 99.1456 9.10298H96.6655V20.5H94.6903ZM108.46 20.7173C107.838 20.7173 107.275 20.6023 106.772 20.3722C106.27 20.1378 105.871 19.799 105.577 19.3558C105.287 18.9126 105.142 18.3693 105.142 17.7259C105.142 17.1719 105.249 16.7159 105.462 16.358C105.675 16 105.963 15.7166 106.325 15.5078C106.687 15.299 107.092 15.1413 107.539 15.0348C107.987 14.9283 108.443 14.8473 108.907 14.7919C109.495 14.7237 109.973 14.6683 110.339 14.6257C110.706 14.5788 110.972 14.5043 111.138 14.402C111.304 14.2997 111.387 14.1335 111.387 13.9034V13.8587C111.387 13.3004 111.23 12.8679 110.914 12.5611C110.603 12.2543 110.139 12.1009 109.521 12.1009C108.878 12.1009 108.37 12.2436 108 12.5291C107.633 12.8104 107.38 13.1236 107.239 13.4688L105.443 13.0597C105.656 12.4631 105.967 11.9815 106.376 11.6151C106.789 11.2443 107.265 10.9759 107.802 10.8097C108.338 10.6392 108.903 10.554 109.495 10.554C109.887 10.554 110.303 10.6009 110.742 10.6946C111.185 10.7841 111.598 10.9503 111.982 11.1932C112.37 11.4361 112.687 11.7834 112.934 12.2351C113.182 12.6825 113.305 13.2642 113.305 13.9801V20.5H111.439V19.1577H111.362C111.238 19.4048 111.053 19.6477 110.806 19.8864C110.559 20.125 110.241 20.3232 109.853 20.4808C109.466 20.6385 109.001 20.7173 108.46 20.7173ZM108.875 19.1832C109.404 19.1832 109.856 19.0788 110.231 18.87C110.61 18.6612 110.897 18.3885 111.093 18.0518C111.294 17.7109 111.394 17.3466 111.394 16.9588V15.6932C111.326 15.7614 111.194 15.8253 110.998 15.8849C110.806 15.9403 110.586 15.9893 110.339 16.032C110.092 16.0703 109.851 16.1065 109.617 16.1406C109.383 16.1705 109.187 16.196 109.029 16.2173C108.658 16.2642 108.319 16.343 108.012 16.4538C107.71 16.5646 107.467 16.7244 107.284 16.9332C107.105 17.1378 107.015 17.4105 107.015 17.7514C107.015 18.2244 107.19 18.5824 107.539 18.8253C107.889 19.0639 108.334 19.1832 108.875 19.1832ZM116.347 24.1818C116.062 24.1818 115.802 24.1584 115.567 24.1115C115.333 24.0689 115.158 24.022 115.043 23.9709L115.504 22.4048C115.853 22.4986 116.164 22.5391 116.437 22.5263C116.709 22.5135 116.95 22.4112 117.159 22.2195C117.372 22.0277 117.56 21.7145 117.722 21.2798L117.958 20.6278L114.366 10.6818H116.411L118.898 18.3011H119L121.486 10.6818H123.538L119.492 21.8104C119.305 22.3217 119.066 22.7543 118.776 23.108C118.486 23.4659 118.141 23.7344 117.741 23.9134C117.34 24.0923 116.876 24.1818 116.347 24.1818Z" fill="#242529"/>
</svg>
