<svg width="27" height="27" viewBox="0 0 27 27" fill="none" xmlns="http://www.w3.org/2000/svg">
<rect width="27" height="27" rx="13.5" fill="#FF5512"/>
<path d="M20.0674 15.8779H18.8037C18.8366 16.0798 18.8535 16.2933 18.8535 16.5186C18.8535 17.2882 18.6564 17.9722 18.2627 18.5693C17.8734 19.1664 17.3069 19.6374 16.5635 19.9824C15.8242 20.3274 14.9288 20.5 13.8789 20.5C12.873 20.5 12.0024 20.3385 11.2676 20.0156C10.5328 19.6928 9.95752 19.2352 9.54199 18.6426C9.12642 18.0454 8.89726 17.3369 8.85352 16.5186H10.8867C10.9261 17.0094 11.084 17.4188 11.3594 17.7461C11.6393 18.0689 11.9958 18.3105 12.4287 18.4697C12.8662 18.6245 13.3457 18.7021 13.8662 18.7021C14.4393 18.7021 14.9493 18.611 15.3955 18.4297C15.8459 18.2439 16.2 17.9874 16.458 17.6602C16.7161 17.3284 16.8447 16.9414 16.8447 16.499C16.8447 16.2678 16.8065 16.061 16.7314 15.8779H6.93262V14.4189H20.0674V15.8779ZM13.9775 6.5C14.8874 6.5 15.6902 6.6615 16.3857 6.98438C17.0857 7.30728 17.6366 7.75217 18.0391 8.31836C18.4415 8.88011 18.6514 9.52603 18.6689 10.2559H16.7139C16.6439 9.62774 16.3551 9.14092 15.8477 8.7959C15.3402 8.44647 14.7015 8.27148 13.9316 8.27148C13.3805 8.2715 12.9034 8.36019 12.501 8.53711C12.0987 8.70961 11.7865 8.94879 11.5635 9.25391C11.3448 9.55469 11.2354 9.8974 11.2354 10.2822C11.2354 10.605 11.3093 10.8838 11.458 11.1182C11.5506 11.2599 11.662 11.3856 11.7881 11.5H20.0674V12.959H15.8555C15.8564 12.9593 15.8574 12.9596 15.8584 12.96H10.4912L10.4902 12.959H6.93262V11.5H9.38184C9.27042 11.1668 9.21387 10.8008 9.21387 10.4014C9.21388 9.61859 9.42396 8.93537 9.84375 8.35156C10.2637 7.76772 10.8325 7.31411 11.5498 6.99121C12.2672 6.66391 13.0765 6.50002 13.9775 6.5Z" fill="white"/>
</svg>
