<svg width="88" height="58" viewBox="0 0 88 58" fill="none" xmlns="http://www.w3.org/2000/svg">
<rect x="30.5" width="27" height="27" rx="13.5" fill="#FF5512"/>
<path d="M50.5674 15.8779H49.3037C49.3366 16.0798 49.3535 16.2933 49.3535 16.5186C49.3535 17.2882 49.1564 17.9722 48.7627 18.5693C48.3734 19.1664 47.8069 19.6374 47.0635 19.9824C46.3242 20.3274 45.4288 20.5 44.3789 20.5C43.373 20.5 42.5024 20.3385 41.7676 20.0156C41.0328 19.6928 40.4575 19.2352 40.042 18.6426C39.6264 18.0454 39.3973 17.3369 39.3535 16.5186H41.3867C41.4261 17.0094 41.584 17.4188 41.8594 17.7461C42.1393 18.0689 42.4958 18.3105 42.9287 18.4697C43.3662 18.6245 43.8457 18.7021 44.3662 18.7021C44.9393 18.7021 45.4493 18.611 45.8955 18.4297C46.3459 18.2439 46.7 17.9874 46.958 17.6602C47.2161 17.3284 47.3447 16.9414 47.3447 16.499C47.3447 16.2678 47.3065 16.061 47.2314 15.8779H37.4326V14.4189H50.5674V15.8779ZM44.4775 6.5C45.3874 6.5 46.1902 6.6615 46.8857 6.98438C47.5857 7.30728 48.1366 7.75217 48.5391 8.31836C48.9415 8.88011 49.1514 9.52603 49.1689 10.2559H47.2139C47.1439 9.62774 46.8551 9.14092 46.3477 8.7959C45.8402 8.44647 45.2015 8.27148 44.4316 8.27148C43.8805 8.2715 43.4034 8.36019 43.001 8.53711C42.5987 8.70961 42.2865 8.94879 42.0635 9.25391C41.8448 9.55469 41.7354 9.8974 41.7354 10.2822C41.7354 10.605 41.8093 10.8838 41.958 11.1182C42.0506 11.2599 42.162 11.3856 42.2881 11.5H50.5674V12.959H46.3555C46.3564 12.9593 46.3574 12.9596 46.3584 12.96H40.9912L40.9902 12.959H37.4326V11.5H39.8818C39.7704 11.1668 39.7139 10.8008 39.7139 10.4014C39.7139 9.61859 39.924 8.93537 40.3438 8.35156C40.7637 7.76772 41.3325 7.31411 42.0498 6.99121C42.7672 6.66391 43.5765 6.50002 44.4775 6.5Z" fill="white"/>
<path d="M8.57812 44.348C8.50994 43.7429 8.22869 43.2741 7.73438 42.9418C7.24006 42.6051 6.6179 42.4368 5.8679 42.4368C5.33097 42.4368 4.86648 42.522 4.47443 42.6925C4.08239 42.8587 3.7777 43.0888 3.56037 43.3828C3.3473 43.6726 3.24077 44.0028 3.24077 44.3736C3.24077 44.6847 3.31321 44.9531 3.4581 45.179C3.60724 45.4048 3.80114 45.5945 4.03977 45.7479C4.28267 45.897 4.54261 46.0227 4.8196 46.125C5.09659 46.223 5.36293 46.304 5.61861 46.3679L6.89702 46.7003C7.31463 46.8026 7.7429 46.9411 8.18182 47.1158C8.62074 47.2905 9.0277 47.5206 9.4027 47.8061C9.7777 48.0916 10.0803 48.4453 10.3104 48.8672C10.5447 49.2891 10.6619 49.794 10.6619 50.3821C10.6619 51.1236 10.4702 51.782 10.0866 52.3572C9.70739 52.9325 9.15554 53.3864 8.43111 53.7188C7.71094 54.0511 6.83949 54.2173 5.81676 54.2173C4.83665 54.2173 3.98864 54.0618 3.27273 53.7507C2.55682 53.4396 1.99645 52.9986 1.59162 52.4276C1.18679 51.8523 0.963068 51.1705 0.920455 50.3821H2.90199C2.94034 50.8551 3.09375 51.2493 3.36222 51.5646C3.63494 51.8757 3.98224 52.108 4.40412 52.2614C4.83026 52.4105 5.29688 52.4851 5.80398 52.4851C6.36222 52.4851 6.85867 52.3977 7.29332 52.223C7.73224 52.044 8.07742 51.7969 8.32884 51.4815C8.58026 51.1619 8.70597 50.7891 8.70597 50.3629C8.70597 49.9751 8.59517 49.6577 8.37358 49.4105C8.15625 49.1634 7.86009 48.9588 7.48509 48.7969C7.11435 48.6349 6.6946 48.4922 6.22585 48.3686L4.67898 47.9467C3.63068 47.6612 2.79972 47.2415 2.18608 46.6875C1.5767 46.1335 1.27202 45.4006 1.27202 44.4886C1.27202 43.7344 1.47656 43.076 1.88565 42.5135C2.29474 41.951 2.84872 41.5142 3.54759 41.2031C4.24645 40.8878 5.0348 40.7301 5.91264 40.7301C6.79901 40.7301 7.58097 40.8857 8.25852 41.1967C8.94034 41.5078 9.47727 41.9361 9.86932 42.4815C10.2614 43.0227 10.4659 43.6449 10.483 44.348H8.57812ZM17.0919 44.1818V45.7159H11.729V44.1818H17.0919ZM13.1672 41.8295H15.0784V51.1172C15.0784 51.4879 15.1338 51.767 15.2446 51.9545C15.3554 52.1378 15.4981 52.2635 15.6728 52.3317C15.8518 52.3956 16.0457 52.4276 16.2545 52.4276C16.4079 52.4276 16.5422 52.4169 16.6572 52.3956C16.7723 52.3743 16.8618 52.3572 16.9257 52.3445L17.2709 53.9233C17.1601 53.9659 17.0024 54.0085 16.7978 54.0511C16.5933 54.098 16.3376 54.1236 16.0308 54.1278C15.528 54.1364 15.0592 54.0469 14.6246 53.8594C14.1899 53.6719 13.8383 53.3821 13.5699 52.9901C13.3014 52.598 13.1672 52.1058 13.1672 51.5135V41.8295ZM21.7033 54.2173C21.0811 54.2173 20.5186 54.1023 20.0158 53.8722C19.513 53.6378 19.1145 53.299 18.8205 52.8558C18.5307 52.4126 18.3858 51.8693 18.3858 51.2259C18.3858 50.6719 18.4924 50.2159 18.7054 49.858C18.9185 49.5 19.2061 49.2166 19.5684 49.0078C19.9306 48.799 20.3354 48.6413 20.7828 48.5348C21.2303 48.4283 21.6863 48.3473 22.1507 48.2919C22.7388 48.2237 23.2161 48.1683 23.5826 48.1257C23.949 48.0788 24.2154 48.0043 24.3816 47.902C24.5478 47.7997 24.6309 47.6335 24.6309 47.4034V47.3587C24.6309 46.8004 24.4732 46.3679 24.1578 46.0611C23.8468 45.7543 23.3823 45.6009 22.7644 45.6009C22.1209 45.6009 21.6138 45.7436 21.2431 46.0291C20.8766 46.3104 20.623 46.6236 20.4824 46.9688L18.6863 46.5597C18.8993 45.9631 19.2104 45.4815 19.6195 45.1151C20.0328 44.7443 20.508 44.4759 21.0449 44.3097C21.5818 44.1392 22.1465 44.054 22.7388 44.054C23.1309 44.054 23.5463 44.1009 23.9853 44.1946C24.4284 44.2841 24.8418 44.4503 25.2253 44.6932C25.6131 44.9361 25.9306 45.2834 26.1777 45.7351C26.4249 46.1825 26.5485 46.7642 26.5485 47.4801V54H24.682V52.6577H24.6053C24.4817 52.9048 24.2963 53.1477 24.0492 53.3864C23.802 53.625 23.4845 53.8232 23.0968 53.9808C22.709 54.1385 22.2445 54.2173 21.7033 54.2173ZM22.1188 52.6832C22.6472 52.6832 23.0989 52.5788 23.4739 52.37C23.8532 52.1612 24.1408 51.8885 24.3368 51.5518C24.5371 51.2109 24.6372 50.8466 24.6372 50.4588V49.1932C24.5691 49.2614 24.437 49.3253 24.2409 49.3849C24.0492 49.4403 23.8297 49.4893 23.5826 49.532C23.3354 49.5703 23.0946 49.6065 22.8603 49.6406C22.6259 49.6705 22.4299 49.696 22.2722 49.7173C21.9014 49.7642 21.5627 49.843 21.2559 49.9538C20.9533 50.0646 20.7104 50.2244 20.5272 50.4332C20.3482 50.6378 20.2587 50.9105 20.2587 51.2514C20.2587 51.7244 20.4334 52.0824 20.7828 52.3253C21.1323 52.5639 21.5776 52.6832 22.1188 52.6832ZM32.8698 54.1982C31.9195 54.1982 31.1013 53.983 30.4152 53.5526C29.7334 53.1179 29.2092 52.5192 28.8428 51.7564C28.4763 50.9936 28.293 50.12 28.293 49.1357C28.293 48.1385 28.4805 47.2585 28.8555 46.4957C29.2305 45.7287 29.759 45.13 30.4408 44.6996C31.1226 44.2692 31.9259 44.054 32.8506 44.054C33.5963 44.054 34.2611 44.1925 34.8449 44.4695C35.4287 44.7422 35.8996 45.1257 36.2575 45.62C36.6198 46.1143 36.835 46.6918 36.9031 47.3523H35.043C34.9408 46.892 34.7064 46.4957 34.3399 46.1634C33.9777 45.831 33.4919 45.6648 32.8825 45.6648C32.3499 45.6648 31.8832 45.8054 31.4827 46.0866C31.0864 46.3636 30.7774 46.7599 30.5558 47.2756C30.3342 47.7869 30.2234 48.392 30.2234 49.0909C30.2234 49.8068 30.3321 50.4247 30.5494 50.9446C30.7668 51.4645 31.0736 51.8672 31.4699 52.1527C31.8705 52.4382 32.3413 52.581 32.8825 52.581C33.2448 52.581 33.5729 52.5149 33.8669 52.3828C34.1652 52.2464 34.4145 52.0526 34.6148 51.8011C34.8193 51.5497 34.9621 51.2472 35.043 50.8935H36.9031C36.835 51.5284 36.6283 52.0952 36.2831 52.5938C35.9379 53.0923 35.4756 53.4844 34.896 53.7699C34.3207 54.0554 33.6453 54.1982 32.8698 54.1982ZM40.3448 50.6697L40.332 48.3366H40.6644L44.5763 44.1818H46.8647L42.403 48.9119H42.1026L40.3448 50.6697ZM38.587 54V40.9091H40.4982V54H38.587ZM44.7873 54L41.2716 49.3338L42.5884 47.9979L47.1332 54H44.7873ZM55.6038 46.5788L53.8715 46.8857C53.7991 46.6641 53.684 46.4531 53.5264 46.2528C53.3729 46.0526 53.1641 45.8885 52.8999 45.7607C52.6357 45.6328 52.3055 45.5689 51.9092 45.5689C51.368 45.5689 50.9163 45.6903 50.554 45.9332C50.1918 46.1719 50.0107 46.4808 50.0107 46.8601C50.0107 47.1882 50.1322 47.4524 50.3751 47.6527C50.618 47.853 51.01 48.017 51.5512 48.1449L53.1109 48.5028C54.0143 48.7116 54.6876 49.0334 55.1308 49.468C55.5739 49.9027 55.7955 50.4673 55.7955 51.1619C55.7955 51.75 55.6251 52.2741 55.2842 52.7344C54.9475 53.1903 54.4766 53.5483 53.8715 53.8082C53.2707 54.0682 52.5739 54.1982 51.7813 54.1982C50.6819 54.1982 49.7849 53.9638 49.0903 53.495C48.3957 53.022 47.9695 52.3509 47.8119 51.4815L49.6592 51.2003C49.7742 51.6818 50.0107 52.0462 50.3687 52.2933C50.7266 52.5362 51.1933 52.6577 51.7685 52.6577C52.395 52.6577 52.8957 52.5277 53.2707 52.2678C53.6457 52.0036 53.8332 51.6818 53.8332 51.3026C53.8332 50.9957 53.7181 50.7379 53.488 50.5291C53.2621 50.3203 52.9148 50.1626 52.4461 50.0561L50.7842 49.6918C49.868 49.483 49.1904 49.1506 48.7515 48.6946C48.3168 48.2386 48.0995 47.6612 48.0995 46.9624C48.0995 46.3828 48.2614 45.8757 48.5853 45.4411C48.9092 45.0064 49.3566 44.6676 49.9276 44.4247C50.4987 44.1776 51.1528 44.054 51.89 44.054C52.9511 44.054 53.7863 44.2841 54.3957 44.7443C55.005 45.2003 55.4077 45.8118 55.6038 46.5788ZM57.6903 54V40.9091H62.3565C63.375 40.9091 64.2187 41.0945 64.8878 41.4652C65.5568 41.8359 66.0575 42.343 66.3899 42.9865C66.7223 43.6257 66.8885 44.3459 66.8885 45.147C66.8885 45.9524 66.7201 46.6768 66.3835 47.3203C66.0511 47.9595 65.5483 48.4666 64.875 48.8416C64.2059 49.2124 63.3643 49.3977 62.3501 49.3977H59.1413V47.723H62.1711C62.8146 47.723 63.3366 47.6122 63.7372 47.3906C64.1378 47.1648 64.4318 46.858 64.6193 46.4702C64.8068 46.0824 64.9005 45.6413 64.9005 45.147C64.9005 44.6527 64.8068 44.2138 64.6193 43.8303C64.4318 43.4467 64.1356 43.1463 63.7308 42.929C63.3302 42.7116 62.8018 42.603 62.1456 42.603H59.6655V54H57.6903ZM71.4599 54.2173C70.8378 54.2173 70.2753 54.1023 69.7724 53.8722C69.2696 53.6378 68.8712 53.299 68.5771 52.8558C68.2874 52.4126 68.1425 51.8693 68.1425 51.2259C68.1425 50.6719 68.249 50.2159 68.4621 49.858C68.6751 49.5 68.9628 49.2166 69.325 49.0078C69.6872 48.799 70.092 48.6413 70.5395 48.5348C70.9869 48.4283 71.4429 48.3473 71.9074 48.2919C72.4955 48.2237 72.9727 48.1683 73.3392 48.1257C73.7057 48.0788 73.972 48.0043 74.1382 47.902C74.3044 47.7997 74.3875 47.6335 74.3875 47.4034V47.3587C74.3875 46.8004 74.2298 46.3679 73.9145 46.0611C73.6034 45.7543 73.1389 45.6009 72.521 45.6009C71.8776 45.6009 71.3705 45.7436 70.9997 46.0291C70.6332 46.3104 70.3797 46.6236 70.2391 46.9688L68.4429 46.5597C68.656 45.9631 68.967 45.4815 69.3761 45.1151C69.7895 44.7443 70.2646 44.4759 70.8016 44.3097C71.3385 44.1392 71.9031 44.054 72.4955 44.054C72.8875 44.054 73.303 44.1009 73.7419 44.1946C74.1851 44.2841 74.5984 44.4503 74.982 44.6932C75.3697 44.9361 75.6872 45.2834 75.9344 45.7351C76.1815 46.1825 76.3051 46.7642 76.3051 47.4801V54H74.4386V52.6577H74.3619C74.2383 52.9048 74.053 53.1477 73.8058 53.3864C73.5587 53.625 73.2412 53.8232 72.8534 53.9808C72.4656 54.1385 72.0011 54.2173 71.4599 54.2173ZM71.8754 52.6832C72.4038 52.6832 72.8555 52.5788 73.2305 52.37C73.6098 52.1612 73.8974 51.8885 74.0935 51.5518C74.2937 51.2109 74.3939 50.8466 74.3939 50.4588V49.1932C74.3257 49.2614 74.1936 49.3253 73.9976 49.3849C73.8058 49.4403 73.5864 49.4893 73.3392 49.532C73.092 49.5703 72.8513 49.6065 72.6169 49.6406C72.3825 49.6705 72.1865 49.696 72.0288 49.7173C71.6581 49.7642 71.3193 49.843 71.0125 49.9538C70.7099 50.0646 70.467 50.2244 70.2838 50.4332C70.1048 50.6378 70.0153 50.9105 70.0153 51.2514C70.0153 51.7244 70.1901 52.0824 70.5395 52.3253C70.8889 52.5639 71.3342 52.6832 71.8754 52.6832ZM79.3473 57.6818C79.0618 57.6818 78.8018 57.6584 78.5674 57.6115C78.3331 57.5689 78.1584 57.522 78.0433 57.4709L78.5035 55.9048C78.853 55.9986 79.164 56.0391 79.4368 56.0263C79.7095 56.0135 79.9503 55.9112 80.1591 55.7195C80.3721 55.5277 80.5596 55.2145 80.7216 54.7798L80.9581 54.1278L77.3657 44.1818H79.4112L81.8977 51.8011H82L84.4865 44.1818H86.5383L82.4922 55.3104C82.3047 55.8217 82.066 56.2543 81.7763 56.608C81.4865 56.9659 81.1413 57.2344 80.7407 57.4134C80.3402 57.5923 79.8757 57.6818 79.3473 57.6818Z" fill="#242529"/>
</svg>
