<svg width="88" height="21" viewBox="0 0 88 21" fill="none" xmlns="http://www.w3.org/2000/svg">
<path d="M8.57812 7.34801C8.50994 6.7429 8.22869 6.27415 7.73438 5.94176C7.24006 5.60511 6.6179 5.43679 5.8679 5.43679C5.33097 5.43679 4.86648 5.52202 4.47443 5.69247C4.08239 5.85866 3.7777 6.08878 3.56037 6.38281C3.3473 6.67258 3.24077 7.00284 3.24077 7.37358C3.24077 7.68466 3.31321 7.95312 3.4581 8.17898C3.60724 8.40483 3.80114 8.59446 4.03977 8.74787C4.28267 8.89702 4.54261 9.02273 4.8196 9.125C5.09659 9.22301 5.36293 9.30398 5.61861 9.3679L6.89702 9.70028C7.31463 9.80256 7.7429 9.94105 8.18182 10.1158C8.62074 10.2905 9.0277 10.5206 9.4027 10.8061C9.7777 11.0916 10.0803 11.4453 10.3104 11.8672C10.5447 12.2891 10.6619 12.794 10.6619 13.3821C10.6619 14.1236 10.4702 14.782 10.0866 15.3572C9.70739 15.9325 9.15554 16.3864 8.43111 16.7188C7.71094 17.0511 6.83949 17.2173 5.81676 17.2173C4.83665 17.2173 3.98864 17.0618 3.27273 16.7507C2.55682 16.4396 1.99645 15.9986 1.59162 15.4276C1.18679 14.8523 0.963068 14.1705 0.920455 13.3821H2.90199C2.94034 13.8551 3.09375 14.2493 3.36222 14.5646C3.63494 14.8757 3.98224 15.108 4.40412 15.2614C4.83026 15.4105 5.29688 15.4851 5.80398 15.4851C6.36222 15.4851 6.85867 15.3977 7.29332 15.223C7.73224 15.044 8.07742 14.7969 8.32884 14.4815C8.58026 14.1619 8.70597 13.7891 8.70597 13.3629C8.70597 12.9751 8.59517 12.6577 8.37358 12.4105C8.15625 12.1634 7.86009 11.9588 7.48509 11.7969C7.11435 11.6349 6.6946 11.4922 6.22585 11.3686L4.67898 10.9467C3.63068 10.6612 2.79972 10.2415 2.18608 9.6875C1.5767 9.13352 1.27202 8.40057 1.27202 7.48864C1.27202 6.73437 1.47656 6.07599 1.88565 5.51349C2.29474 4.95099 2.84872 4.5142 3.54759 4.20312C4.24645 3.88778 5.0348 3.73011 5.91264 3.73011C6.79901 3.73011 7.58097 3.88565 8.25852 4.19673C8.94034 4.50781 9.47727 4.93608 9.86932 5.48153C10.2614 6.02273 10.4659 6.64489 10.483 7.34801H8.57812ZM17.0919 7.18182V8.71591H11.729V7.18182H17.0919ZM13.1672 4.82955H15.0784V14.1172C15.0784 14.4879 15.1338 14.767 15.2446 14.9545C15.3554 15.1378 15.4981 15.2635 15.6728 15.3317C15.8518 15.3956 16.0457 15.4276 16.2545 15.4276C16.4079 15.4276 16.5422 15.4169 16.6572 15.3956C16.7723 15.3743 16.8618 15.3572 16.9257 15.3445L17.2709 16.9233C17.1601 16.9659 17.0024 17.0085 16.7978 17.0511C16.5933 17.098 16.3376 17.1236 16.0308 17.1278C15.528 17.1364 15.0592 17.0469 14.6246 16.8594C14.1899 16.6719 13.8383 16.3821 13.5699 15.9901C13.3014 15.598 13.1672 15.1058 13.1672 14.5135V4.82955ZM21.7033 17.2173C21.0811 17.2173 20.5186 17.1023 20.0158 16.8722C19.513 16.6378 19.1145 16.299 18.8205 15.8558C18.5307 15.4126 18.3858 14.8693 18.3858 14.2259C18.3858 13.6719 18.4924 13.2159 18.7054 12.858C18.9185 12.5 19.2061 12.2166 19.5684 12.0078C19.9306 11.799 20.3354 11.6413 20.7828 11.5348C21.2303 11.4283 21.6863 11.3473 22.1507 11.2919C22.7388 11.2237 23.2161 11.1683 23.5826 11.1257C23.949 11.0788 24.2154 11.0043 24.3816 10.902C24.5478 10.7997 24.6309 10.6335 24.6309 10.4034V10.3587C24.6309 9.80043 24.4732 9.3679 24.1578 9.06108C23.8468 8.75426 23.3823 8.60085 22.7644 8.60085C22.1209 8.60085 21.6138 8.74361 21.2431 9.02912C20.8766 9.31037 20.623 9.62358 20.4824 9.96875L18.6863 9.55966C18.8993 8.96307 19.2104 8.48153 19.6195 8.11506C20.0328 7.74432 20.508 7.47585 21.0449 7.30966C21.5818 7.1392 22.1465 7.05398 22.7388 7.05398C23.1309 7.05398 23.5463 7.10085 23.9853 7.1946C24.4284 7.28409 24.8418 7.45028 25.2253 7.69318C25.6131 7.93608 25.9306 8.28338 26.1777 8.73509C26.4249 9.18253 26.5485 9.7642 26.5485 10.4801V17H24.682V15.6577H24.6053C24.4817 15.9048 24.2963 16.1477 24.0492 16.3864C23.802 16.625 23.4845 16.8232 23.0968 16.9808C22.709 17.1385 22.2445 17.2173 21.7033 17.2173ZM22.1188 15.6832C22.6472 15.6832 23.0989 15.5788 23.4739 15.37C23.8532 15.1612 24.1408 14.8885 24.3368 14.5518C24.5371 14.2109 24.6372 13.8466 24.6372 13.4588V12.1932C24.5691 12.2614 24.437 12.3253 24.2409 12.3849C24.0492 12.4403 23.8297 12.4893 23.5826 12.532C23.3354 12.5703 23.0946 12.6065 22.8603 12.6406C22.6259 12.6705 22.4299 12.696 22.2722 12.7173C21.9014 12.7642 21.5627 12.843 21.2559 12.9538C20.9533 13.0646 20.7104 13.2244 20.5272 13.4332C20.3482 13.6378 20.2587 13.9105 20.2587 14.2514C20.2587 14.7244 20.4334 15.0824 20.7828 15.3253C21.1323 15.5639 21.5776 15.6832 22.1188 15.6832ZM32.8698 17.1982C31.9195 17.1982 31.1013 16.983 30.4152 16.5526C29.7334 16.1179 29.2092 15.5192 28.8428 14.7564C28.4763 13.9936 28.293 13.12 28.293 12.1357C28.293 11.1385 28.4805 10.2585 28.8555 9.49574C29.2305 8.72869 29.759 8.12997 30.4408 7.69957C31.1226 7.26918 31.9259 7.05398 32.8506 7.05398C33.5963 7.05398 34.2611 7.19247 34.8449 7.46946C35.4287 7.74219 35.8996 8.12571 36.2575 8.62003C36.6198 9.11435 36.835 9.69176 36.9031 10.3523H35.043C34.9408 9.89205 34.7064 9.49574 34.3399 9.16335C33.9777 8.83097 33.4919 8.66477 32.8825 8.66477C32.3499 8.66477 31.8832 8.8054 31.4827 9.08665C31.0864 9.36364 30.7774 9.75994 30.5558 10.2756C30.3342 10.7869 30.2234 11.392 30.2234 12.0909C30.2234 12.8068 30.3321 13.4247 30.5494 13.9446C30.7668 14.4645 31.0736 14.8672 31.4699 15.1527C31.8705 15.4382 32.3413 15.581 32.8825 15.581C33.2448 15.581 33.5729 15.5149 33.8669 15.3828C34.1652 15.2464 34.4145 15.0526 34.6148 14.8011C34.8193 14.5497 34.9621 14.2472 35.043 13.8935H36.9031C36.835 14.5284 36.6283 15.0952 36.2831 15.5938C35.9379 16.0923 35.4756 16.4844 34.896 16.7699C34.3207 17.0554 33.6453 17.1982 32.8698 17.1982ZM40.3448 13.6697L40.332 11.3366H40.6644L44.5763 7.18182H46.8647L42.403 11.9119H42.1026L40.3448 13.6697ZM38.587 17V3.90909H40.4982V17H38.587ZM44.7873 17L41.2716 12.3338L42.5884 10.9979L47.1332 17H44.7873ZM55.6038 9.57884L53.8715 9.88565C53.7991 9.66406 53.684 9.45312 53.5264 9.25284C53.3729 9.05256 53.1641 8.88849 52.8999 8.76065C52.6357 8.63281 52.3055 8.56889 51.9092 8.56889C51.368 8.56889 50.9163 8.69034 50.554 8.93324C50.1918 9.17187 50.0107 9.48082 50.0107 9.86009C50.0107 10.1882 50.1322 10.4524 50.3751 10.6527C50.618 10.853 51.01 11.017 51.5512 11.1449L53.1109 11.5028C54.0143 11.7116 54.6876 12.0334 55.1308 12.468C55.5739 12.9027 55.7955 13.4673 55.7955 14.1619C55.7955 14.75 55.6251 15.2741 55.2842 15.7344C54.9475 16.1903 54.4766 16.5483 53.8715 16.8082C53.2707 17.0682 52.5739 17.1982 51.7813 17.1982C50.6819 17.1982 49.7849 16.9638 49.0903 16.495C48.3957 16.022 47.9695 15.3509 47.8119 14.4815L49.6592 14.2003C49.7742 14.6818 50.0107 15.0462 50.3687 15.2933C50.7266 15.5362 51.1933 15.6577 51.7685 15.6577C52.395 15.6577 52.8957 15.5277 53.2707 15.2678C53.6457 15.0036 53.8332 14.6818 53.8332 14.3026C53.8332 13.9957 53.7181 13.7379 53.488 13.5291C53.2621 13.3203 52.9148 13.1626 52.4461 13.0561L50.7842 12.6918C49.868 12.483 49.1904 12.1506 48.7515 11.6946C48.3168 11.2386 48.0995 10.6612 48.0995 9.96236C48.0995 9.38281 48.2614 8.87571 48.5853 8.44105C48.9092 8.00639 49.3566 7.66761 49.9276 7.42472C50.4987 7.17756 51.1528 7.05398 51.89 7.05398C52.9511 7.05398 53.7863 7.28409 54.3957 7.74432C55.005 8.20028 55.4077 8.81179 55.6038 9.57884ZM57.6903 17V3.90909H62.3565C63.375 3.90909 64.2187 4.09446 64.8878 4.4652C65.5568 4.83594 66.0575 5.34304 66.3899 5.98651C66.7223 6.62571 66.8885 7.34588 66.8885 8.14702C66.8885 8.95241 66.7201 9.67685 66.3835 10.3203C66.0511 10.9595 65.5483 11.4666 64.875 11.8416C64.2059 12.2124 63.3643 12.3977 62.3501 12.3977H59.1413V10.723H62.1711C62.8146 10.723 63.3366 10.6122 63.7372 10.3906C64.1378 10.1648 64.4318 9.85795 64.6193 9.47017C64.8068 9.08239 64.9005 8.64133 64.9005 8.14702C64.9005 7.6527 64.8068 7.21378 64.6193 6.83026C64.4318 6.44673 64.1356 6.14631 63.7308 5.92898C63.3302 5.71165 62.8018 5.60298 62.1456 5.60298H59.6655V17H57.6903ZM71.4599 17.2173C70.8378 17.2173 70.2753 17.1023 69.7724 16.8722C69.2696 16.6378 68.8712 16.299 68.5771 15.8558C68.2874 15.4126 68.1425 14.8693 68.1425 14.2259C68.1425 13.6719 68.249 13.2159 68.4621 12.858C68.6751 12.5 68.9628 12.2166 69.325 12.0078C69.6872 11.799 70.092 11.6413 70.5395 11.5348C70.9869 11.4283 71.4429 11.3473 71.9074 11.2919C72.4955 11.2237 72.9727 11.1683 73.3392 11.1257C73.7057 11.0788 73.972 11.0043 74.1382 10.902C74.3044 10.7997 74.3875 10.6335 74.3875 10.4034V10.3587C74.3875 9.80043 74.2298 9.3679 73.9145 9.06108C73.6034 8.75426 73.1389 8.60085 72.521 8.60085C71.8776 8.60085 71.3705 8.74361 70.9997 9.02912C70.6332 9.31037 70.3797 9.62358 70.2391 9.96875L68.4429 9.55966C68.656 8.96307 68.967 8.48153 69.3761 8.11506C69.7895 7.74432 70.2646 7.47585 70.8016 7.30966C71.3385 7.1392 71.9031 7.05398 72.4955 7.05398C72.8875 7.05398 73.303 7.10085 73.7419 7.1946C74.1851 7.28409 74.5984 7.45028 74.982 7.69318C75.3697 7.93608 75.6872 8.28338 75.9344 8.73509C76.1815 9.18253 76.3051 9.7642 76.3051 10.4801V17H74.4386V15.6577H74.3619C74.2383 15.9048 74.053 16.1477 73.8058 16.3864C73.5587 16.625 73.2412 16.8232 72.8534 16.9808C72.4656 17.1385 72.0011 17.2173 71.4599 17.2173ZM71.8754 15.6832C72.4038 15.6832 72.8555 15.5788 73.2305 15.37C73.6098 15.1612 73.8974 14.8885 74.0935 14.5518C74.2937 14.2109 74.3939 13.8466 74.3939 13.4588V12.1932C74.3257 12.2614 74.1936 12.3253 73.9976 12.3849C73.8058 12.4403 73.5864 12.4893 73.3392 12.532C73.092 12.5703 72.8513 12.6065 72.6169 12.6406C72.3825 12.6705 72.1865 12.696 72.0288 12.7173C71.6581 12.7642 71.3193 12.843 71.0125 12.9538C70.7099 13.0646 70.467 13.2244 70.2838 13.4332C70.1048 13.6378 70.0153 13.9105 70.0153 14.2514C70.0153 14.7244 70.1901 15.0824 70.5395 15.3253C70.8889 15.5639 71.3342 15.6832 71.8754 15.6832ZM79.3473 20.6818C79.0618 20.6818 78.8018 20.6584 78.5674 20.6115C78.3331 20.5689 78.1584 20.522 78.0433 20.4709L78.5035 18.9048C78.853 18.9986 79.164 19.0391 79.4368 19.0263C79.7095 19.0135 79.9503 18.9112 80.1591 18.7195C80.3721 18.5277 80.5596 18.2145 80.7216 17.7798L80.9581 17.1278L77.3657 7.18182H79.4112L81.8977 14.8011H82L84.4865 7.18182H86.5383L82.4922 18.3104C82.3047 18.8217 82.066 19.2543 81.7763 19.608C81.4865 19.9659 81.1413 20.2344 80.7407 20.4134C80.3402 20.5923 79.8757 20.6818 79.3473 20.6818Z" fill="#242529"/>
</svg>
