<svg width="37" height="37" viewBox="0 0 37 37" fill="none" xmlns="http://www.w3.org/2000/svg">
<rect width="37" height="37" rx="18.5" fill="black"/>
<path fill-rule="evenodd" clip-rule="evenodd" d="M17.0857 0.0265693C13.7918 0.31018 10.8094 1.35628 8.15032 3.16075C5.0554 5.26094 2.65855 8.24441 1.30059 11.687C0.575282 13.5257 0.160872 15.4007 0.0340296 17.4174C-0.109494 19.7 0.20371 22.1258 0.921886 24.2931C1.27343 25.3541 1.49119 25.8817 1.98017 26.8575C3.44316 29.7769 5.68288 32.277 8.44755 34.0766C10.6353 35.5007 13.0223 36.415 15.6493 36.8351C16.6662 36.9977 16.9281 37.011 18.7948 36.9947L20.5596 36.9793L21.0797 36.8972C22.8799 36.6129 24.4399 36.1774 25.854 35.5645C29.9499 33.7889 33.2121 30.6848 35.18 26.6903C36.0741 24.8754 36.6511 22.9652 36.9239 20.916L37 20.3449V18.5138V16.6828L36.9245 16.1117C36.7078 14.4736 36.2213 12.6867 35.6002 11.2479C35.2412 10.4164 34.6925 9.35317 34.344 8.8136C33.8719 8.08281 33.6759 7.79582 33.3925 7.42011C31.5913 5.03196 29.361 3.17918 26.7271 1.88288C24.7462 0.908026 22.8557 0.359164 20.5039 0.076111C19.9159 0.00538485 17.7042 -0.0266891 17.0857 0.0265693ZM21.101 9.30177C21.0587 9.35562 21.0237 9.41 21.0233 9.42256C21.0229 9.43512 20.8986 9.93017 20.7472 10.5226L20.4719 11.5998L20.3909 11.6655C20.3463 11.7016 20.2808 11.7311 20.2454 11.7311C20.2099 11.7311 19.5747 11.5797 18.8338 11.3945C17.4252 11.0426 17.3256 11.0296 17.2238 11.1853C17.1492 11.2991 16.9994 12.0126 17.027 12.1225C17.0395 12.1724 17.091 12.2403 17.1414 12.2734C17.1919 12.3065 17.5887 12.4249 18.0232 12.5367C18.4578 12.6485 18.8426 12.7664 18.8784 12.7988C18.9141 12.8311 18.9434 12.9094 18.9434 12.9726C18.9434 13.0359 18.4589 15.0277 17.8666 17.3989L16.7898 21.7101L16.7242 21.7581C16.5997 21.8493 16.5006 21.8452 16.0787 21.7314C15.8458 21.6686 15.5101 21.5806 15.3326 21.5358L15.0099 21.4544L14.9138 21.4982L14.8176 21.542L14.6123 21.9605C14.4994 22.1907 14.3911 22.395 14.3717 22.4144C14.3016 22.4845 14.3389 22.6049 14.4671 22.7225C14.539 22.7885 14.6351 22.8509 14.6807 22.8612C15.1557 22.9684 17.1865 23.487 17.2372 23.5141C17.2737 23.5337 17.3136 23.5813 17.3259 23.6199C17.3382 23.6585 17.2121 24.2362 17.0459 24.9036L16.7436 26.1171L16.7897 26.2286C16.8468 26.3665 16.8849 26.3871 17.2609 26.4831C17.6469 26.5817 17.7647 26.5805 17.8815 26.4766L17.9754 26.3929L18.2364 25.3151C18.3799 24.7223 18.5238 24.1662 18.5563 24.0793L18.6152 23.9213L18.7057 23.8986C18.8045 23.8737 20.1159 24.197 20.2012 24.2672C20.3266 24.3704 20.3146 24.4591 20.018 25.6332C19.8561 26.2738 19.7236 26.8419 19.7236 26.8956C19.7236 26.9496 19.762 27.0293 19.8096 27.074C19.8935 27.1528 20.3183 27.2937 20.5782 27.3288L20.7082 27.3463L20.8078 27.2413L20.9074 27.1363L21.1942 25.9693C21.4903 24.7642 21.5291 24.6647 21.7029 24.6647C21.7494 24.6647 21.9497 24.706 22.1482 24.7563C22.7385 24.9061 23.1305 24.9649 23.6805 24.9863L24.2006 25.0066L24.5751 24.9491C25.8466 24.7539 26.7727 23.9755 27.2553 22.6963C27.5693 21.8639 27.5592 21.1299 27.2244 20.4426C26.9658 19.9121 26.5566 19.4944 25.9132 19.1043L25.5998 18.9143L25.894 18.8941L26.1883 18.8739L26.4321 18.7598C27.1373 18.4297 27.7876 17.3795 27.8842 16.4146C27.8975 16.2814 27.9239 16.1623 27.9428 16.15C27.9826 16.1239 27.916 15.4468 27.8703 15.4134C27.8542 15.4016 27.8004 15.2916 27.7507 15.1689C27.6017 14.801 27.4194 14.5229 27.1248 14.2145C26.6594 13.7272 26.0813 13.3702 25.2415 13.0515C24.9986 12.9593 24.7865 12.8628 24.7702 12.8371C24.7142 12.7488 24.7406 12.6025 24.9998 11.5661C25.1427 10.9949 25.2595 10.4799 25.2595 10.4215C25.2595 10.2477 25.1305 10.1592 24.7351 10.0618C24.3434 9.96522 24.2143 9.97488 24.1276 10.1072C24.0972 10.1537 23.9526 10.676 23.8062 11.268C23.6599 11.86 23.5223 12.367 23.5004 12.3947C23.4055 12.5146 23.3052 12.5067 22.5654 12.321C22.1608 12.2194 21.8001 12.1204 21.7638 12.101C21.7276 12.0816 21.6925 12.0281 21.6859 11.982C21.6792 11.936 21.7949 11.4133 21.943 10.8205C22.091 10.2278 22.2124 9.70647 22.2125 9.66217C22.2135 9.46181 22.1358 9.4061 21.6831 9.28252C21.2973 9.17727 21.1963 9.18057 21.101 9.30177ZM11.4537 12.4536C11.1001 12.5331 10.8114 12.6989 10.5631 12.9651C10.2879 13.2601 10.1596 13.5208 10.0225 14.0638C9.76798 15.0721 9.96256 15.7195 10.6582 16.179C10.9319 16.3597 11.1512 16.4259 13.036 16.8973C14.0271 17.1451 14.8753 17.3721 14.9209 17.4017C15.0667 17.4962 15.0736 17.6955 14.9448 18.0952C14.8725 18.3195 14.737 18.4209 14.5097 18.4209C14.4171 18.4209 13.9767 18.3279 13.5308 18.2141C13.085 18.1003 12.1852 17.874 11.5313 17.7112C10.8774 17.5485 10.1195 17.3593 9.84716 17.2909L9.3519 17.1666L9.33541 17.2096C9.26998 17.3802 8.9927 18.5903 9.01455 18.61C9.04037 18.6332 9.47629 18.742 12.6645 19.5211C13.3695 19.6933 14.0215 19.8542 14.1135 19.8785C14.3535 19.9422 14.8766 19.9289 15.0985 19.8536C15.8454 19.6002 16.2357 19.0417 16.4326 17.9444L16.4815 17.6722L16.4499 17.3605L16.4183 17.0489L16.3077 16.8151C16.1579 16.4986 15.8411 16.1848 15.5073 16.0225L15.2466 15.8957L14.0206 15.5963C13.3462 15.4316 12.5021 15.2232 12.1448 15.1332L11.4951 14.9694L11.4296 14.8885C11.3485 14.7883 11.347 14.6576 11.4236 14.3525C11.4957 14.0656 11.5959 13.9593 11.8183 13.9342L11.9798 13.916L12.9816 14.1616C13.5326 14.2967 14.0754 14.4315 14.1878 14.4611C14.6221 14.5754 15.0299 14.6773 15.1723 14.7071C15.2541 14.7242 15.4213 14.7651 15.5439 14.7979C16.2016 14.974 16.9194 15.1503 16.9784 15.1503C17.0539 15.1503 17.0524 15.1547 17.2537 14.3191C17.3269 14.0152 17.3786 13.7585 17.3687 13.7486C17.3588 13.7386 16.777 13.5901 16.0758 13.4185C15.3745 13.2469 14.7088 13.0814 14.5965 13.0507C14.4841 13.0201 14.1413 12.935 13.8348 12.8617C13.5283 12.7884 13.1939 12.7051 13.0917 12.6768C12.1972 12.4287 11.8031 12.3749 11.4537 12.4536ZM21.3173 13.6732L21.2204 13.7566L21.1595 14.0168C21.126 14.1599 21.0055 14.6365 20.8918 15.076C20.778 15.5155 20.679 15.9002 20.6717 15.9308C20.6645 15.9615 20.6032 16.1873 20.5355 16.4326C20.3951 16.9417 20.381 17.1535 20.4804 17.2634C20.5606 17.3521 21.4079 17.637 21.9157 17.746C22.1098 17.7877 22.4458 17.8408 22.6624 17.8639L23.0561 17.9059L23.4172 17.8657C24.0573 17.7943 24.412 17.6361 24.7492 17.2718C24.9588 17.0453 25.0582 16.8428 25.1694 16.416C25.3817 15.6004 24.8763 14.77 23.8599 14.2643C23.3231 13.9973 22.8065 13.8273 22.0968 13.684C21.5234 13.5683 21.4403 13.5672 21.3173 13.6732ZM20.0408 18.6052C20.0027 18.6473 19.9085 18.9487 19.8171 19.3207C19.5195 20.5318 19.1654 22.0074 19.121 22.2213L19.0766 22.4353L19.1359 22.4946C19.2684 22.6271 20.6074 22.9785 21.4049 23.0901L21.8228 23.1486L22.4173 23.1299C23.2654 23.1034 23.7217 22.9523 24.1241 22.5649C24.5347 22.1694 24.7321 21.4242 24.5705 20.8796C24.2541 19.8141 22.9836 19.0681 20.7024 18.6085C20.232 18.5137 20.1241 18.5132 20.0408 18.6052Z" fill="#FF5512"/>
</svg>
