<svg width="38" height="38" viewBox="0 0 38 38" fill="none" xmlns="http://www.w3.org/2000/svg">
<rect width="38" height="38" rx="19" fill="#043CAE"/>
<path fill-rule="evenodd" clip-rule="evenodd" d="M17.2858 7.04061L19.3061 6.44889L21.3264 7.04061L20.7345 5.02031L21.3264 3L19.3061 3.59175L17.2858 3L17.8774 5.02031L17.2858 7.04061ZM17.2858 35.6121L19.3061 35.0202L21.3264 35.6121L20.7345 33.5918L21.3264 31.5715L19.3061 32.1632L17.2858 31.5715L17.8774 33.5918L17.2858 35.6121ZM33.5916 20.7347L31.5714 21.3263L32.1632 19.306L31.5714 17.2857L33.5916 17.8774L35.6121 17.2857L35.0203 19.306L35.6121 21.3263L33.5916 20.7347ZM3 21.3263L5.02031 20.7347L7.04061 21.3263L6.44889 19.306L7.04061 17.2857L5.02031 17.8774L3 17.2857L3.59175 19.306L3 21.3263ZM31.6779 13.5917L29.6576 14.1835L30.2492 12.1632L29.6576 10.1429L31.6779 10.7346L33.6981 10.1429L33.1063 12.1632L33.6981 14.1835L31.6779 13.5917ZM4.91394 28.4693L6.93424 27.8774L8.95455 28.4693L8.3628 26.4488L8.95455 24.4285L6.93424 25.0204L4.91394 24.4285L5.50566 26.4488L4.91394 28.4693ZM26.4489 8.3628L24.4286 8.95455L25.0202 6.93424L24.4286 4.91394L26.4489 5.50566L28.4691 4.91394L27.8775 6.93424L28.4691 8.95455L26.4489 8.3628ZM10.1429 33.6981L12.1631 33.1064L14.1836 33.6981L13.5917 31.6778L14.1836 29.6575L12.1631 30.2491L10.1429 29.6575L10.7346 31.6778L10.1429 33.6981ZM31.6779 27.8774L29.6576 28.4693L30.2492 26.4488L29.6576 24.4285L31.6779 25.0204L33.6981 24.4285L33.1063 26.4488L33.6981 28.4693L31.6779 27.8774ZM4.91394 14.1835L6.93424 13.5917L8.95455 14.1835L8.3628 12.1632L8.95455 10.1429L6.93424 10.7346L4.91394 10.1429L5.50566 12.1632L4.91394 14.1835ZM26.4489 33.1064L24.4286 33.6981L25.0202 31.6778L24.4286 29.6575L26.4489 30.2491L28.4691 29.6575L27.8775 31.6778L28.4691 33.6981L26.4489 33.1064ZM10.1429 8.95455L12.1631 8.3628L14.1836 8.95455L13.5917 6.93424L14.1836 4.91394L12.1631 5.50566L10.1429 4.91394L10.7346 6.93424L10.1429 8.95455Z" fill="#FFD429"/>
</svg>
