<svg width="38" height="38" viewBox="0 0 38 38" fill="none" xmlns="http://www.w3.org/2000/svg">
<g clip-path="url(#clip0_47_6895)">
<path d="M3.34624 8.23413C2.121 10.0125 1.18985 12.0093 0.625244 14.1555H9.26798L3.34624 8.23413Z" fill="#29337A"/>
<path d="M13.6789 0.760498C11.4898 1.39803 9.46237 2.41534 7.67709 3.74223L13.6789 9.74403V0.760498Z" fill="#29337A"/>
<path d="M8.12344 34.5746C9.79802 35.7465 11.6689 36.6536 13.6789 37.2389V29.0201L8.12344 34.5746Z" fill="#29337A"/>
<path d="M0.843292 24.61C1.47152 26.645 2.43419 28.5329 3.66449 30.2123L9.2667 24.61H0.843292Z" fill="#29337A"/>
<path d="M3.65969 7.79321C3.55348 7.93842 3.44879 8.08571 3.34618 8.23452L9.26792 14.1559H0.62518C0.485111 14.689 0.370793 15.2324 0.276611 15.7832H11.6503L3.65969 7.79321Z" fill="white"/>
<path d="M7.68271 34.2612C7.82727 34.3689 7.97584 34.4714 8.12337 34.5747L13.6788 29.0199V37.2387C14.2125 37.3948 14.7546 37.5294 15.3061 37.6377V26.6381L7.68271 34.2612Z" fill="white"/>
<path d="M0.421173 22.9828C0.539101 23.5342 0.678288 24.0772 0.842986 24.6101H9.26648L3.66427 30.2123C4.27356 31.0448 4.9492 31.826 5.68332 32.5484L15.2488 22.9828H0.421173Z" fill="white"/>
<path d="M13.6789 0.76054V9.74407L7.67701 3.74259C6.84959 4.3579 6.07616 5.041 5.35953 5.78049L15.3058 15.7268V0.361511C14.7547 0.470454 14.2126 0.605469 13.6789 0.76054Z" fill="white"/>
<path d="M13.6789 24.5527L13.6219 24.61H13.6789V24.5527Z" fill="#D32030"/>
<path d="M15.2491 22.9828H15.306V22.9255L15.2491 22.9828Z" fill="#D32030"/>
<path d="M22.561 15.7828H22.5061V15.838L22.561 15.7828Z" fill="#D32030"/>
<path d="M13.735 14.1559L13.6789 14.0995V14.1559H13.735Z" fill="#D32030"/>
<path d="M15.3061 15.7266V15.7828H15.3622L15.3061 15.7266Z" fill="#D32030"/>
<path d="M24.1331 33.0329V37.292C26.1692 36.722 28.0676 35.8235 29.7656 34.6529L25.1507 30.038C24.7819 31.3337 24.647 32.0036 24.1331 33.0329Z" fill="#252F6C"/>
<path d="M25.1749 8.70185L30.2129 3.66393C28.4029 2.33849 26.3497 1.3284 24.133 0.707397V5.08259C24.7255 6.26909 24.7753 7.17064 25.1749 8.70185Z" fill="#252F6C"/>
<path d="M34.2575 30.323C35.5263 28.6162 36.5151 26.6897 37.1573 24.61H28.5446L34.2575 30.323Z" fill="#252F6C"/>
<path d="M37.3748 14.1559C36.7982 11.9644 35.8391 9.93008 34.5752 8.12378L28.5424 14.1559H37.3748Z" fill="#252F6C"/>
<path d="M26.2841 23.3048L27.5897 24.6104L33.8393 30.86C33.9812 30.6824 34.1222 30.5054 34.2578 30.3233L28.5449 24.6104H37.1577C37.3218 24.0779 37.4612 23.5346 37.5788 22.9832H26.4062C26.3879 23.2139 26.306 23.0756 26.2841 23.3048Z" fill="white"/>
<path d="M24.9776 9.65467L30.6419 3.98973C30.5 3.87966 30.3578 3.77016 30.2128 3.66394L25.1749 8.70186C25.2272 8.90105 24.929 9.45066 24.9776 9.65467Z" fill="#E7E7E7"/>
<path d="M24.1331 4.73252V0.707095C23.6 0.55772 23.0573 0.431128 22.5058 0.327881V2.29142C23.1113 2.9478 23.654 3.77225 24.1331 4.73252Z" fill="white"/>
<path d="M26.156 15.7828H37.7237C37.6298 15.232 37.5152 14.689 37.3751 14.1556H28.5428L34.5755 8.12345C33.9824 7.27621 33.3233 6.47944 32.6033 5.74115L25.8083 12.5355C25.9913 13.768 26.0732 14.4838 26.156 15.7828Z" fill="white"/>
<path d="M24.8762 29.7629L29.7659 34.6532C30.5792 34.0931 31.3451 33.4696 32.0598 32.7929L25.628 26.3608C25.4227 27.5504 25.1792 28.6993 24.8762 29.7629Z" fill="white"/>
<path d="M22.5062 35.4827V37.6712C23.0575 37.5686 23.6 37.4413 24.1334 37.292V33.0328C23.654 33.9935 23.1113 34.8272 22.5062 35.4827Z" fill="white"/>
<path d="M25.8083 12.5356L32.6027 5.74117C31.991 5.11295 31.3352 4.52828 30.6416 3.98975L25.3027 9.32947C25.54 10.3213 25.6478 11.4565 25.8083 12.5356Z" fill="#E51D35"/>
<path d="M18.0517 0.0234251C18.3683 0.00810252 18.6839 0 18.9997 0C18.682 0 18.3658 0.00810252 18.0517 0.0234251Z" fill="#E51D35"/>
<path d="M18.9997 38C18.6838 38 18.3682 37.9913 18.0522 37.976C18.3664 37.9919 18.682 38 18.9997 38Z" fill="#E51D35"/>
<path d="M18.9997 38C20.1985 38 21.3691 37.884 22.5061 37.6712V35.4827C21.508 36.5645 20.3405 38 18.9997 38Z" fill="#E51D35"/>
<path d="M37.7234 15.7828H26.306C26.4572 18.1658 26.4389 20.6162 26.2514 22.9828H37.5789C37.8531 21.6979 38 20.3665 38 19.0003C38 17.9029 37.9022 16.8295 37.7234 15.7828Z" fill="#E51D35"/>
<path d="M26.2841 23.3047C26.1785 24.4274 25.8107 25.3021 25.6277 26.3612L32.0594 32.7929C32.6958 32.1898 33.2906 31.5449 33.839 30.86L27.5896 24.6101L26.2841 23.3047Z" fill="#E51D35"/>
<path d="M22.5061 2.43268V0.328192C21.3695 0.116083 20.1988 0 18.9997 0C20.3404 0 21.508 1.35119 22.5061 2.43268Z" fill="#D32030"/>
<path d="M24.1331 33.8547C24.647 32.8251 25.0876 31.6398 25.4567 30.3443L24.1331 29.0208V33.8547Z" fill="#29337A"/>
<path d="M25.6214 8.25543C25.2211 6.72422 24.7256 5.33219 24.1331 4.14569V9.74309L25.6214 8.25543Z" fill="#29337A"/>
<path d="M26.6528 23.6732C26.6744 23.444 26.6939 23.2139 26.7125 22.9828H25.9625L26.6528 23.6732Z" fill="white"/>
<path d="M24.1331 9.74317V4.14545C23.6537 3.18518 23.1113 2.36017 22.5058 1.70435V12.1258L25.7737 8.85791C25.7245 8.6539 25.6729 8.45407 25.6213 8.25487L24.1331 9.74317Z" fill="white"/>
<path d="M22.561 15.7828H26.767C26.6846 14.4839 26.5532 13.2058 26.3704 11.9737L22.561 15.7828Z" fill="white"/>
<path d="M22.5062 36.2954C23.1116 35.6391 23.654 34.8146 24.1334 33.8543V29.0204L25.457 30.344C25.7606 29.2799 26.0153 28.1432 26.2211 26.9537L22.5062 23.2391L22.5062 36.2954Z" fill="white"/>
<path d="M22.5061 36.2954V23.2391L26.2208 26.9539C26.4035 25.8946 26.5472 24.796 26.6525 23.6731L25.9622 22.9828H26.7122C26.8996 20.6161 26.9179 18.1657 26.7668 15.7828H22.5608L26.3699 11.9737C26.2094 10.8943 26.0108 9.85025 25.7735 8.85814L22.5062 12.126V1.70458C21.508 0.622771 20.3404 0 18.9997 0C18.6838 0 18.3682 0.00810252 18.0517 0.0234251C17.1172 0.0701951 16.2007 0.185155 15.3061 0.361565V15.7267L5.35953 5.78046C4.7484 6.4111 4.17994 7.08304 3.65969 7.79318L10.0224 14.1559L11.6502 15.7831H0.276609C0.0984335 16.8295 0 17.9029 0 19.0003C0 20.3668 0.14761 21.6979 0.42117 22.9828H15.2491L5.68355 32.5484C6.30994 33.1637 6.97683 33.7367 7.68279 34.2611L15.3058 26.638V37.6379C16.2004 37.8143 17.1175 37.9292 18.052 37.976C18.3679 37.9913 18.6835 38 18.9994 38C20.3404 38 21.508 37.3772 22.5061 36.2954Z" fill="#E51D35"/>
</g>
<defs>
<clipPath id="clip0_47_6895">
<rect width="38" height="38" fill="white"/>
</clipPath>
</defs>
</svg>
