<svg width="38" height="38" viewBox="0 0 38 38" fill="none" xmlns="http://www.w3.org/2000/svg">
<g clip-path="url(#clip0_47_6896)">
<path d="M37.9158 20.7771H0.0856628V20.7777H37.9158V20.7771Z" fill="#C42126"/>
<path d="M35.944 10.405H2.05603V10.4055H35.944V10.405Z" fill="#C42126"/>
<path d="M37.2903 13.8618H0.708435V13.8624H37.2903V13.8618Z" fill="#C42126"/>
<path d="M8.16618 34.6052H29.8341L29.8353 34.604H8.16498L8.16618 34.6052Z" fill="#C42126"/>
<path d="M18.9999 0C18.6267 0 18.2565 0.0134775 17.8889 0.0344961H20.1111C19.7432 0.0134775 19.3731 0 18.9999 0Z" fill="#C42126"/>
<path d="M37.9207 17.3195H0.0784607V17.32H37.9207V17.3195Z" fill="#C42126"/>
<path d="M24.6156 6.94804H33.6882C32.6106 5.63615 31.3581 4.47484 29.9706 3.4917H23.1579C23.7216 4.4835 24.2064 5.6538 24.6156 6.94804Z" fill="#F3F4F5"/>
<path d="M23.1579 3.49172H29.9706C27.1542 1.49584 23.7729 0.245954 20.1111 0.0344849H19.5261C21.2496 0.251409 22.0412 1.52696 23.1579 3.49172Z" fill="#E73625"/>
<path d="M37.2916 13.8621C36.9537 12.6573 36.5007 11.5014 35.944 10.4058H25.5063C25.7177 11.5155 25.8846 12.6746 26.0081 13.8621H37.2916Z" fill="#F3F4F5"/>
<path d="M24.9192 10.4052H35.9436C35.3154 9.16953 34.5607 8.00998 33.6882 6.9483H24.0579C24.3975 8.02322 24.6858 9.18277 24.9192 10.4052Z" fill="#E73625"/>
<path d="M26.4078 20.7763H37.9143C37.9689 20.1916 37.9998 19.5991 37.9998 19.0003C37.9998 18.4336 37.9701 17.8741 37.9215 17.3197H26.4105C26.448 18.4693 26.4473 19.6273 26.4078 20.7763Z" fill="#F3F4F5"/>
<path d="M37.9219 17.3191C37.8177 16.132 37.6039 14.977 37.2915 13.8628H25.5234C25.6416 14.9947 25.7196 16.1527 25.7577 17.3191H37.9219Z" fill="#E73625"/>
<path d="M25.3077 27.6904H35.8941C36.4587 26.596 36.9189 25.4392 37.2639 24.2335H25.8195C25.6935 25.4228 25.5224 26.5817 25.3077 27.6904Z" fill="#F3F4F5"/>
<path d="M37.2643 24.2333C37.5832 23.1194 37.8046 21.9644 37.9146 20.7769H26.0493C26.0088 21.9442 25.9284 23.102 25.8078 24.2333H37.2643Z" fill="#E73625"/>
<path d="M29.8353 34.604C31.2429 33.6248 32.513 32.4623 33.6078 31.1476H24.6933C24.2766 32.4473 23.7818 33.6157 23.2079 34.604H29.8353Z" fill="#F3F4F5"/>
<path d="M24.3578 31.1474H33.6078C34.4904 30.0869 35.2566 28.9274 35.8941 27.6905H25.23C24.9933 28.9138 24.702 30.0739 24.3578 31.1474Z" fill="#E73625"/>
<path d="M18.3113 37.9865C18.2729 37.9853 18.2345 37.9836 18.1961 37.9824C18.2345 37.9835 18.273 37.9853 18.3113 37.9865Z" fill="#DC3027"/>
<path d="M18.9999 38C23.028 38 26.7603 36.7427 29.8341 34.6052H22.9578C21.7373 36.7079 20.9321 38 18.9999 38Z" fill="#E73625"/>
<path d="M18.9999 38C18.7692 38 18.54 37.9946 18.3114 37.9865C18.5424 37.9943 18.7718 38 18.9999 38Z" fill="#C42126"/>
<path d="M23.787 3.4917H8.02972C6.64194 4.47484 5.38973 5.63607 4.31177 6.94804H25.2444C24.8352 5.6538 24.3507 4.4835 23.787 3.4917Z" fill="#F3F4F5"/>
<path d="M8.02972 3.49172H23.787C22.6701 1.52696 21.2496 0.251409 19.5261 0.0344849H17.8889C14.2271 0.245954 10.8458 1.49584 8.02972 3.49172Z" fill="#E73625"/>
<path d="M0.708771 13.8621H26.6073C26.4837 12.6744 26.3169 11.5155 26.1054 10.4058H2.05636C1.49953 11.5015 1.04659 12.6573 0.708771 13.8621Z" fill="#F3F4F5"/>
<path d="M4.31178 6.94806C3.43999 8.00974 2.68461 9.1692 2.0567 10.405H26.1054C25.8723 9.18276 25.5841 8.02329 25.2444 6.94806H4.31178Z" fill="#E73625"/>
<path d="M0.000152588 19.0002C0.000152588 19.599 0.0313595 20.1916 0.0856707 20.7762H26.8394C26.8791 19.6272 26.8796 18.4695 26.8422 17.3199H0.0784506C0.0298352 17.8741 0.000152588 18.4335 0.000152588 19.0002Z" fill="#F3F4F5"/>
<path d="M0.0784607 17.3191H26.8419C26.8038 16.1524 26.7255 14.9947 26.6076 13.8628H0.708456C0.396146 14.9773 0.18227 16.132 0.0784607 17.3191Z" fill="#E73625"/>
<path d="M26.598 24.2333H0.736053C1.08109 25.4393 1.54158 26.5958 2.10587 27.6902H26.0862C26.301 26.5817 26.4717 25.4227 26.598 24.2333Z" fill="#F3F4F5"/>
<path d="M0.736065 24.2333H26.598C26.7184 23.102 26.799 21.9439 26.8395 20.7769H0.0856934C0.19576 21.9646 0.417498 23.1194 0.736065 24.2333Z" fill="#E73625"/>
<path d="M8.16496 34.604H23.729C24.303 33.6155 24.7979 32.4473 25.2144 31.1476H4.39246C5.48719 32.4623 6.75704 33.6248 8.16496 34.604Z" fill="#F3F4F5"/>
<path d="M2.1062 27.6904C2.74374 28.9273 3.50987 30.0869 4.39249 31.1473H25.2144C25.5582 30.0739 25.8495 28.9138 26.0862 27.6904H2.1062Z" fill="#E73625"/>
<path d="M18.1961 37.9823C18.2346 37.9835 18.2729 37.9853 18.3113 37.9865C18.54 37.9946 18.7692 38 18.9998 38C20.9322 38 22.5077 36.7079 23.7284 34.6052H8.1662C11.0339 36.5997 14.4762 37.8273 18.1961 37.9823Z" fill="#E73625"/>
<path d="M18.6071 0.0098877C8.87063 0.207959 0.93493 7.72562 0.0808716 17.2882H18.6074V0.0098877H18.6071Z" fill="#283991"/>
<path d="M3.80177 10.765L4.09122 11.6562H5.02903L4.27036 12.2074L4.56012 13.0993L3.80177 12.5478L3.04366 13.0993L3.33286 12.2074L2.57443 11.6562H3.51224L3.80177 10.765Z" fill="#EFEFEF"/>
<path d="M3.80177 13.9138L4.09122 14.8057H5.02903L4.27036 15.3568L4.56012 16.2487L3.80177 15.6973L3.04366 16.2487L3.33286 15.3568L2.57443 14.8057H3.51224L3.80177 13.9138Z" fill="#EFEFEF"/>
<path d="M6.9512 6.04053L7.24073 6.93213H8.17822L7.41979 7.48359L7.70931 8.37487L6.9512 7.82406L6.19277 8.37487L6.48229 7.48359L5.72354 6.93213H6.66135L6.9512 6.04053Z" fill="#EFEFEF"/>
<path d="M6.9512 9.18994L7.24073 10.0815H8.17822L7.41979 10.6324L7.70931 11.5243L6.9512 10.9735L6.19277 11.5243L6.48229 10.6324L5.72354 10.0815H6.66135L6.9512 9.18994Z" fill="#EFEFEF"/>
<path d="M6.9512 12.3394L7.24073 13.2313H8.17822L7.41979 13.7818L7.70931 14.6737L6.9512 14.1223L6.19277 14.6737L6.48229 13.7818L5.72354 13.2313H6.66135L6.9512 12.3394Z" fill="#EFEFEF"/>
<path d="M1.4107 14.6737L1.12094 13.7818L1.87937 13.231H0.942118L0.921099 13.1659C0.818173 13.4842 0.725194 13.8064 0.639435 14.1322L0.652672 14.1223L1.4107 14.6737Z" fill="#EFEFEF"/>
<path d="M3.04367 9.94988L3.80178 9.3985L4.56021 9.94988L4.27044 9.05795L5.02887 8.50658H4.09106L3.80154 7.6153L3.51201 8.50658H3.16641C3.10223 8.60381 3.04014 8.7016 2.97772 8.80028L3.33295 9.05795L3.04367 9.94988Z" fill="#EFEFEF"/>
<path d="M6.95118 4.67462L7.7093 5.22543L7.41977 4.33415L8.17788 3.78278H7.63637C7.17645 4.12661 6.73273 4.49051 6.30643 4.87446L6.19211 5.22543L6.95118 4.67462Z" fill="#EFEFEF"/>
<path d="M9.34216 3.65107L10.1006 3.0997L10.8587 3.65107L10.5692 2.75915L11.3273 2.20833H10.3898L10.3505 2.08832C10.0328 2.25061 9.71841 2.41948 9.41115 2.59918L9.63137 2.75907L9.34216 3.65107Z" fill="#EFEFEF"/>
<path d="M10.1006 4.46613L10.3901 5.35717H11.3276L10.5692 5.90854L10.8587 6.80047L10.1006 6.24901L9.34216 6.80047L9.63169 5.90854L8.87302 5.35717H9.81075L10.1006 4.46613Z" fill="#EFEFEF"/>
<path d="M10.1006 7.61554L10.3901 8.50658H11.3276L10.5692 9.05796L10.8587 9.94988L10.1006 9.39843L9.34216 9.94988L9.63169 9.05796L8.87302 8.50658H9.81075L10.1006 7.61554Z" fill="#EFEFEF"/>
<path d="M10.1006 10.765L10.3901 11.6562H11.3276L10.5692 12.2074L10.8587 13.0993L10.1006 12.5478L9.34216 13.0993L9.63169 12.2074L8.87302 11.6562H9.81075L10.1006 10.765Z" fill="#EFEFEF"/>
<path d="M10.1006 13.9138L10.3901 14.8057H11.3276L10.5692 15.3568L10.8587 16.2487L10.1006 15.6973L9.34216 16.2487L9.63169 15.3568L8.87302 14.8057H9.81075L10.1006 13.9138Z" fill="#EFEFEF"/>
<path d="M13.25 2.89111L13.5395 3.78272H14.477L13.7189 4.33417L14.0081 5.22546L13.25 4.67464L12.4913 5.22546L12.7811 4.33417L12.0224 3.78272H12.9602L13.25 2.89111Z" fill="#EFEFEF"/>
<path d="M13.25 6.04053L13.5395 6.93213H14.477L13.7189 7.48359L14.0081 8.37487L13.25 7.82406L12.4913 8.37487L12.7811 7.48359L12.0224 6.93213H12.9602L13.25 6.04053Z" fill="#EFEFEF"/>
<path d="M13.25 9.18994L13.5395 10.0815H14.477L13.7189 10.6324L14.0081 11.5243L13.25 10.9735L12.4913 11.5243L12.7811 10.6324L12.0224 10.0815H12.9602L13.25 9.18994Z" fill="#EFEFEF"/>
<path d="M13.25 12.3394L13.5395 13.2313H14.477L13.7189 13.7818L14.0081 14.6737L13.25 14.1223L12.4913 14.6737L12.7811 13.7818L12.0224 13.2313H12.9602L13.25 12.3394Z" fill="#EFEFEF"/>
<path d="M16.3994 1.31671L16.689 2.20832H17.6264L16.868 2.75913L17.1575 3.65105L16.3994 3.0996L15.6408 3.65105L15.9305 2.75913L15.1718 2.20832H16.1093L16.3994 1.31671Z" fill="#EFEFEF"/>
<path d="M16.3994 4.46613L16.689 5.35717H17.6264L16.868 5.90854L17.1575 6.80047L16.3994 6.24901L15.6408 6.80047L15.9305 5.90854L15.1718 5.35717H16.1093L16.3994 4.46613Z" fill="#EFEFEF"/>
<path d="M16.3994 7.61554L16.689 8.50658H17.6264L16.868 9.05796L17.1575 9.94988L16.3994 9.39843L15.6408 9.94988L15.9305 9.05796L15.1718 8.50658H16.1093L16.3994 7.61554Z" fill="#EFEFEF"/>
<path d="M16.3994 10.765L16.689 11.6562H17.6264L16.868 12.2074L17.1575 13.0993L16.3994 12.5478L15.6408 13.0993L15.9305 12.2074L15.1718 11.6562H16.1093L16.3994 10.765Z" fill="#EFEFEF"/>
<path d="M16.3994 13.9138L16.689 14.8057H17.6264L16.868 15.3568L17.1575 16.2487L16.3994 15.6973L15.6408 16.2487L15.9305 15.3568L15.1718 14.8057H16.1093L16.3994 13.9138Z" fill="#EFEFEF"/>
</g>
<defs>
<clipPath id="clip0_47_6896">
<rect width="38" height="38" fill="white"/>
</clipPath>
</defs>
</svg>
